<?xml version="1.0" encoding="UTF-8" standalone="no"?>
<svg
   width="570"
   height="379.99997"
   viewBox="0 0 570 380"
   version="1.1"
   id="svg72"
   xmlns:xlink="http://www.w3.org/1999/xlink"
   xmlns="http://www.w3.org/2000/svg"
   xmlns:svg="http://www.w3.org/2000/svg">
  <defs
     id="defs7">
    <linearGradient
       id="uuid-17477a25-53f1-43a0-99f1-583307600d51"
       x1="75"
       y1="0"
       x2="75"
       y2="380"
       gradientUnits="userSpaceOnUse"
       gradientTransform="scale(4.0000002,1)">
      <stop
         offset="0"
         stop-color="#2a2a2b"
         id="stop2" />
      <stop
         offset="1"
         stop-color="#171717"
         id="stop4" />
    </linearGradient>
    <clipPath
       clipPathUnits="userSpaceOnUse"
       id="clipPath20816">
      <use
         x="0"
         y="0"
         xlink:href="#g20812"
         id="use20818" />
    </clipPath>
  </defs>
  <g
     id="uuid-59b7b1a8-30db-41ce-8c27-06ef1a2453cd"
     data-name="FND BG"
     transform="scale(0.95,1)"
     style="fill:#f2f2f2">
    <rect
       width="600"
       height="380"
       fill="url(#uuid-17477a25-53f1-43a0-99f1-583307600d51)"
       id="rect9"
       x="0"
       y="0"
       style="fill:#f2f2f2;stroke-width:2" />
    <g
       id="g20814"
       clip-path="url(#clipPath20816)"
       transform="translate(-165.92356,6.9738685)">
      <g
         id="g20812">
        <g
           aria-label="MIDI CC   CV"
           transform="scale(1.0259784,0.97467939)"
           id="text2404"
           style="font-size:15.0477px;line-height:1.25;fill:#000000;stroke-width:1.02598">
          <path
             d="m 198.3973,11.896884 3.08596,8.199821 3.0786,-8.199821 h 2.40264 v 10.697974 h -1.85157 v -3.526805 l 0.18368,-4.717101 -3.15943,8.243906 h -1.3299 l -3.15208,-8.236558 0.18369,4.709753 v 3.526805 h -1.85157 V 11.896884 Z"
             style="font-weight:500;font-family:Roboto;-inkscape-font-specification:'Roboto Medium';fill:#333333"
             id="path933" />
          <path
             d="m 211.12319,22.594858 h -1.85157 V 11.896884 h 1.85157 z"
             style="font-weight:500;font-family:Roboto;-inkscape-font-specification:'Roboto Medium';fill:#333333"
             id="path935" />
          <path
             d="M 213.40826,22.594858 V 11.896884 h 3.15943 q 1.41807,0 2.51285,0.631886 1.10213,0.631886 1.70462,1.792792 0.6025,1.160907 0.6025,2.659799 v 0.536368 q 0,1.520934 -0.60985,2.674493 -0.60249,1.15356 -1.72666,1.778098 -1.11682,0.624538 -2.56428,0.624538 z m 1.85892,-9.199082 v 7.714885 h 1.21234 q 1.46216,0 2.24099,-0.911091 0.78619,-0.918439 0.80088,-2.630408 v -0.595149 q 0,-1.74136 -0.75679,-2.659798 -0.7568,-0.918439 -2.19691,-0.918439 z"
             style="font-weight:500;font-family:Roboto;-inkscape-font-specification:'Roboto Medium';fill:#333333"
             id="path937" />
          <path
             d="m 225.20102,22.594858 h -1.85158 V 11.896884 h 1.85158 z"
             style="font-weight:500;font-family:Roboto;-inkscape-font-specification:'Roboto Medium';fill:#333333"
             id="path939" />
          <path
             d="m 239.3964,19.112139 q -0.16164,1.711969 -1.26377,2.674493 -1.10212,0.955176 -2.93165,0.955176 -1.27847,0 -2.25569,-0.602495 -0.96987,-0.609844 -1.49889,-1.726665 -0.52902,-1.116822 -0.55106,-2.593671 v -0.999261 q 0,-1.513587 0.53636,-2.667147 0.53637,-1.153559 1.53563,-1.778097 1.00661,-0.624538 2.32182,-0.624538 1.77075,0 2.85083,0.962524 1.08008,0.962523 1.25642,2.718578 h -1.85157 q -0.13225,-1.153559 -0.67597,-1.660537 -0.53637,-0.514326 -1.57971,-0.514326 -1.21234,0 -1.86627,0.889049 -0.64658,0.881701 -0.66128,2.593671 v 0.947829 q 0,1.734012 0.61719,2.645103 0.62454,0.911091 1.82219,0.911091 1.09477,0 1.64584,-0.492283 0.55106,-0.492283 0.69801,-1.638494 z"
             style="font-weight:500;font-family:Roboto;-inkscape-font-specification:'Roboto Medium';fill:#333333"
             id="path941" />
          <path
             d="m 249.22003,19.112139 q -0.16165,1.711969 -1.26377,2.674493 -1.10213,0.955176 -2.93166,0.955176 -1.27847,0 -2.25569,-0.602495 -0.96987,-0.609844 -1.49889,-1.726665 -0.52902,-1.116822 -0.55106,-2.593671 v -0.999261 q 0,-1.513587 0.53637,-2.667147 0.53637,-1.153559 1.53563,-1.778097 1.00661,-0.624538 2.32181,-0.624538 1.77075,0 2.85083,0.962524 1.08009,0.962523 1.25643,2.718578 h -1.85157 q -0.13226,-1.153559 -0.67598,-1.660537 -0.53636,-0.514326 -1.57971,-0.514326 -1.21234,0 -1.86627,0.889049 -0.64658,0.881701 -0.66127,2.593671 v 0.947829 q 0,1.734012 0.61719,2.645103 0.62454,0.911091 1.82218,0.911091 1.09478,0 1.64584,-0.492283 0.55107,-0.492283 0.69802,-1.638494 z"
             style="font-weight:500;font-family:Roboto;-inkscape-font-specification:'Roboto Medium';fill:#333333"
             id="path943" />
          <path
             d="m 270.28534,19.112139 q -0.16165,1.711969 -1.26378,2.674493 -1.10212,0.955176 -2.93165,0.955176 -1.27847,0 -2.25569,-0.602495 -0.96987,-0.609844 -1.49889,-1.726665 -0.52902,-1.116822 -0.55106,-2.593671 v -0.999261 q 0,-1.513587 0.53636,-2.667147 0.53637,-1.153559 1.53563,-1.778097 1.00661,-0.624538 2.32182,-0.624538 1.77075,0 2.85083,0.962524 1.08009,0.962523 1.25643,2.718578 h -1.85158 q -0.13225,-1.153559 -0.67597,-1.660537 -0.53637,-0.514326 -1.57971,-0.514326 -1.21234,0 -1.86627,0.889049 -0.64658,0.881701 -0.66128,2.593671 v 0.947829 q 0,1.734012 0.61719,2.645103 0.62454,0.911091 1.82219,0.911091 1.09478,0 1.64584,-0.492283 0.55106,-0.492283 0.69801,-1.638494 z"
             style="font-weight:500;font-family:Roboto;-inkscape-font-specification:'Roboto Medium';fill:#333333"
             id="path945" />
          <path
             d="m 275.71515,20.265698 2.71858,-8.368814 h 2.0426 l -3.85009,10.697974 h -1.80014 l -3.8354,-10.697974 h 2.03526 z"
             style="font-weight:500;font-family:Roboto;-inkscape-font-specification:'Roboto Medium';fill:#333333"
             id="path947" />
        </g>
      </g>
    </g>
    <g
       aria-label="64"
       transform="scale(1.0259784,0.97467939)"
       id="text28100"
       style="font-size:10.9438px;line-height:1.25;fill:#000000;stroke-width:1.02598">
      <path
         d="m 124.37432,23.435224 q -0.56908,0 -1.01777,-0.207933 -0.43775,-0.218876 -0.71135,-0.54719 -0.26265,-0.328314 -0.43775,-0.777009 -0.1751,-0.448696 -0.24077,-0.875504 -0.0657,-0.426809 -0.0657,-0.875504 0,-1.444582 0.84267,-2.506131 1.10533,-1.357031 2.63746,-1.357031 0.58002,0 0.93022,0.196989 0.3502,0.196988 0.3502,0.514358 0,0.22982 -0.16415,0.393977 -0.16416,0.164157 -0.39398,0.164157 -0.0657,0 -0.31737,-0.06566 -0.24076,-0.07661 -0.33926,-0.07661 -0.86456,0 -1.55402,0.656628 -0.67851,0.645684 -0.86456,1.652513 0.39398,-0.415864 0.73324,-0.590965 0.3502,-0.175101 0.76606,-0.175101 0.86456,0 1.46647,0.656628 0.61286,0.656628 0.61286,1.586851 0,0.995886 -0.59097,1.619683 -0.59096,0.612853 -1.64157,0.612853 z m -1.23665,-2.451412 q 0.12038,0.711347 0.42681,1.039661 0.30643,0.317371 0.84267,0.317371 0.51436,0 0.80984,-0.306427 0.29549,-0.306426 0.29549,-0.842672 0,-0.470584 -0.30643,-0.798898 -0.30643,-0.339258 -0.75512,-0.339258 -0.3502,0 -0.72229,0.262652 -0.37209,0.262651 -0.59097,0.667571 z"
         style="font-weight:bold;font-family:FreeMono;-inkscape-font-specification:'FreeMono Bold'"
         id="path910" />
      <path
         d="m 130.69982,23.271067 q -0.72229,0 -0.72229,-0.54719 0,-0.54719 0.72229,-0.54719 h 0.41586 v -0.415865 h -2.97671 v -0.908335 l 2.63746,-4.388464 h 1.43363 v 4.202419 q 0.66758,0 0.66758,0.54719 0,0.525303 -0.66758,0.54719 v 0.415865 q 0.66758,0 0.66758,0.54719 0,0.54719 -0.73324,0.54719 z m 0.41586,-2.604625 v -2.648399 l -1.64157,2.648399 z"
         style="font-weight:bold;font-family:FreeMono;-inkscape-font-specification:'FreeMono Bold'"
         id="path912" />
    </g>
    <g
       aria-label="spectavi labs"
       transform="scale(1.0259784,0.97467939)"
       id="text35212"
       style="font-size:15.0477px;line-height:1.25;fill:#000000;stroke-width:1.02598">
      <path
         d="m 259.40519,373.09649 h -0.22042 q -0.22043,-1.04335 -0.69067,-1.4695 -0.36738,-0.33799 -0.94048,-0.33799 -0.54372,0 -0.83762,0.3086 -0.2792,0.2939 -0.2792,0.64658 0,0.36737 0.16164,0.61719 0.17634,0.24981 0.47024,0.42615 l 1.58707,0.94048 q 0.63188,0.38207 0.8817,0.69067 0.35268,0.42616 0.35268,1.04335 0,0.89639 -0.70536,1.42541 -0.61719,0.47024 -1.42542,0.47024 -0.35268,0 -0.94048,-0.13225 -0.5878,-0.13226 -0.76414,-0.13226 -0.20573,0 -0.32329,0.17634 h -0.19104 v -2.29242 h 0.23512 q 0.20573,0.92579 0.47024,1.32255 0.48494,0.73475 1.42542,0.73475 0.45554,0 0.77884,-0.22042 0.41146,-0.27921 0.41146,-0.85231 0,-0.66128 -0.76415,-1.08743 l -0.85231,-0.48494 q -1.07273,-0.6025 -1.39602,-1.07274 -0.32329,-0.48493 -0.32329,-1.07273 0,-0.70536 0.48493,-1.20499 0.57311,-0.58781 1.57237,-0.58781 0.32329,0 0.66127,0.10287 0.33799,0.0882 0.69067,0.19104 0.13226,0 0.24982,-0.16165 h 0.16164 z"
         style="font-family:aakar;-inkscape-font-specification:aakar;fill:#333333"
         id="path968" />
      <path
         d="m 261.59475,379.63577 v -6.87727 q 0,-0.39676 -0.0294,-0.51432 -0.0882,-0.32329 -0.52902,-0.32329 l -0.41146,0.0147 v -0.23512 q 1.05804,-0.33798 2.11608,-0.74945 l 0.0882,0.0294 v 1.07274 l 0.0294,0.0294 q 0.33799,-0.44085 0.74945,-0.72005 0.61719,-0.41147 1.36663,-0.41147 1.02866,0 1.71932,0.86701 0.70536,0.85231 0.70536,2.29242 0,1.41073 -0.77883,2.51285 -0.88171,1.23438 -2.30712,1.23438 -0.45555,0 -0.79353,-0.13225 -0.32329,-0.13226 -0.69067,-0.49963 v 2.30712 q 0,0.69066 0.24982,0.89639 0.24981,0.20573 1.04334,0.20573 v 0.26451 h -3.55619 v -0.24981 q 0.67597,0 0.8817,-0.26451 0.14695,-0.19104 0.14695,-0.74945 z m 1.23438,-6.83318 v 3.61497 q 0,0.27921 0.47024,0.63189 0.47024,0.33798 1.02865,0.33798 0.8817,0 1.36664,-0.80822 0.44085,-0.72006 0.44085,-2.02792 0,-1.1756 -0.49963,-1.93974 -0.48494,-0.77883 -1.36664,-0.77883 -0.44085,0 -0.91109,0.2792 -0.47024,0.27921 -0.52902,0.69067 z"
         style="font-family:aakar;-inkscape-font-specification:aakar;fill:#333333"
         id="path970" />
      <path
         d="m 273.8357,375.30074 0.23512,0.10287 q -0.24981,0.76414 -0.80823,1.39602 -0.94048,1.05804 -2.30711,1.05804 -1.24908,0 -1.99853,-0.867 -0.74944,-0.86701 -0.74944,-2.42468 0,-1.83688 1.05804,-2.82144 0.85231,-0.79354 1.93974,-0.79354 1.10213,0 1.74871,0.6172 0.72006,0.67597 0.83762,2.07199 h -4.57016 q 0,1.76341 0.79354,2.57163 0.61719,0.63189 1.54297,0.63189 0.85231,0 1.49889,-0.55841 0.36738,-0.32329 0.77884,-0.98457 z m -4.57015,-2.13078 h 3.02717 q -0.11756,-0.76414 -0.30859,-1.10212 -0.33799,-0.5878 -1.10213,-0.5878 -0.66127,0 -1.05804,0.38207 -0.38207,0.36737 -0.55841,1.30785 z"
         style="font-family:aakar;-inkscape-font-specification:aakar;fill:#333333"
         id="path972" />
      <path
         d="m 280.21334,375.4183 0.20573,0.13226 q -0.5878,1.23438 -1.30786,1.77809 -0.70536,0.52902 -1.63114,0.52902 -1.02866,0 -1.80749,-0.76414 -0.94048,-0.92578 -0.94048,-2.51285 0,-1.70462 1.04334,-2.71857 0.94048,-0.9111 2.24834,-0.9111 0.39677,0 0.82292,0.13226 0.42616,0.11756 0.73475,0.33799 0.3086,0.20573 0.47024,0.49963 0.16165,0.2792 0.16165,0.51432 0,0.27921 -0.17634,0.47024 -0.16165,0.17634 -0.49963,0.17634 -0.27921,0 -0.47024,-0.19103 -0.17634,-0.19104 -0.24982,-0.48494 l -0.0882,-0.32329 q -0.10286,-0.39676 -0.23512,-0.51432 -0.20573,-0.19104 -0.73475,-0.19104 -0.63189,0 -1.14621,0.48494 -0.74945,0.70536 -0.74945,2.13077 0,1.24908 0.64658,2.02792 0.64658,0.77883 1.60176,0.77883 0.72006,0 1.26377,-0.41146 0.38207,-0.2939 0.83762,-0.96987 z"
         style="font-family:aakar;-inkscape-font-specification:aakar;fill:#333333"
         id="path974" />
      <path
         d="m 284.63654,371.09797 v 0.47024 h -1.4842 v 4.20277 q 0,0.55841 0.0882,0.82292 0.17634,0.49963 0.66128,0.49963 0.32329,0 0.55841,-0.17634 0.13225,-0.10286 0.33798,-0.33798 l 0.19104,0.16164 q -0.26451,0.48494 -0.74945,0.80823 -0.47024,0.30859 -0.96987,0.30859 -0.61719,0 -0.95517,-0.38207 -0.39677,-0.45554 -0.39677,-1.48419 v -4.4232 h -0.77884 l -0.0588,-0.10287 q 0,-0.0882 0.2939,-0.2939 0.19104,-0.13225 0.35269,-0.2939 0.33798,-0.35268 0.66127,-0.76414 0.24982,-0.32329 0.66128,-0.91109 0.10286,0 0.10286,0.19103 v 1.70463 z"
         style="font-family:aakar;-inkscape-font-specification:aakar;fill:#333333"
         id="path976" />
      <path
         d="m 289.192,375.90324 v -2.13078 q -1.45481,0.48493 -2.01322,1.11682 -0.36738,0.41146 -0.36738,0.94048 0,0.52902 0.27921,0.85231 0.2792,0.32329 0.69066,0.32329 0.22043,0 0.48494,-0.0882 0.26451,-0.0882 0.42616,-0.17634 0.32329,-0.14695 0.41146,-0.30859 0.0882,-0.17634 0.0882,-0.52902 z m 2.27772,0.83761 v 0.38207 q -0.39676,0.47024 -0.79353,0.63189 -0.24981,0.10286 -0.51432,0.10286 -0.36738,0 -0.57311,-0.13225 -0.38207,-0.24982 -0.38207,-0.94048 -0.54371,0.48493 -0.95518,0.72005 -0.61719,0.35268 -1.1756,0.35268 -0.63188,0 -1.10212,-0.41146 -0.45555,-0.41146 -0.45555,-1.11682 0,-0.99926 0.94048,-1.64584 0.64658,-0.44085 2.73328,-1.26377 v -0.8964 q 0,-0.69066 -0.39677,-0.99926 -0.2939,-0.22042 -0.73475,-0.22042 -0.39677,0 -0.72006,0.20573 -0.32329,0.19103 -0.32329,0.51432 0,0.14695 0.0147,0.3086 0.0294,0.14695 0.0588,0.26451 0,0.24981 -0.19104,0.44085 -0.19103,0.19103 -0.47024,0.19103 -0.30859,0 -0.47024,-0.20573 -0.16164,-0.22042 -0.16164,-0.44085 0,-0.54371 0.55841,-1.02865 0.69066,-0.6025 1.83687,-0.6025 1.42542,0 1.91036,0.83762 0.2792,0.48494 0.2792,1.51359 v 2.86553 q 0,0.45554 0.0588,0.66127 0.0735,0.19104 0.36738,0.19104 0.20573,0 0.35268,-0.0735 0.14695,-0.0735 0.30859,-0.20573 z"
         style="font-family:aakar;-inkscape-font-specification:aakar;fill:#333333"
         id="path978" />
      <path
         d="m 298.50864,371.09797 v 0.22042 q -0.35268,0.0294 -0.51433,0.24982 -0.16164,0.20573 -0.44085,0.89639 l -1.88096,4.7171 q -0.16164,0.38207 -0.22042,0.51433 -0.10287,0.22042 -0.17635,0.22042 -0.10286,0 -0.19103,-0.16164 -0.0735,-0.16165 -0.20573,-0.52902 -0.41146,-1.05804 -1.07274,-2.63041 -0.82292,-1.95444 -1.21968,-2.73327 -0.16165,-0.32329 -0.35268,-0.42616 -0.19104,-0.11756 -0.45555,-0.11756 v -0.22042 h 2.88022 v 0.22042 q -0.32329,0 -0.49963,0.0882 -0.17634,0.0882 -0.17634,0.35268 0,0.13226 0.0441,0.26451 0.0441,0.13226 0.0882,0.24982 l 1.49889,3.76192 q 0.10287,-0.2792 0.95518,-2.43937 0.5878,-1.4842 0.5878,-1.79279 0,-0.23512 -0.20573,-0.35268 -0.19104,-0.13226 -0.48494,-0.13226 v -0.22042 z"
         style="font-family:aakar;-inkscape-font-specification:aakar;fill:#333333"
         id="path980" />
      <path
         d="m 299.08174,377.71072 v -0.22042 q 0.72006,0 0.94048,-0.22043 0.22043,-0.22042 0.22043,-1.05804 v -3.40924 q 0,-0.57311 -0.16165,-0.76414 -0.10286,-0.11756 -0.35268,-0.11756 -0.14695,0 -0.23512,0.0147 -0.0735,0 -0.35268,0.0441 v -0.22043 q 0.69067,-0.22042 1.13152,-0.38207 0.76414,-0.2939 1.14621,-0.42616 l 0.0588,0.0441 v 5.21673 q 0,0.77884 0.17634,1.02865 0.19104,0.24982 0.91109,0.24982 v 0.22042 z m 0.91109,-9.28725 q 0,-0.26451 0.16165,-0.47024 0.22042,-0.2792 0.5731,-0.2792 0.3233,0 0.54372,0.22042 0.22043,0.22043 0.22043,0.52902 0,0.32329 -0.22043,0.54372 -0.20573,0.20573 -0.54372,0.20573 -0.35268,0 -0.54371,-0.24982 -0.19104,-0.24981 -0.19104,-0.49963 z"
         style="font-family:aakar;-inkscape-font-specification:aakar;fill:#333333"
         id="path982" />
      <path
         d="m 310.7202,377.71072 v -0.22042 q 0.64658,0 0.8817,-0.22043 0.24982,-0.23512 0.24982,-0.83761 v -7.00953 q 0,-0.52902 -0.11756,-0.70536 -0.11756,-0.19103 -0.54372,-0.19103 l -0.49963,0.0294 v -0.23512 q 1.11682,-0.27921 1.45481,-0.36738 0.0882,-0.0294 0.8817,-0.2792 l 0.0588,0.0294 v 8.77292 q 0,0.63189 0.22042,0.82292 0.22043,0.19104 0.88171,0.19104 v 0.22042 z"
         style="font-family:aakar;-inkscape-font-specification:aakar;fill:#333333"
         id="path984" />
      <path
         d="m 318.71429,375.90324 v -2.13078 q -1.45481,0.48493 -2.01322,1.11682 -0.36737,0.41146 -0.36737,0.94048 0,0.52902 0.2792,0.85231 0.27921,0.32329 0.69067,0.32329 0.22042,0 0.48493,-0.0882 0.26451,-0.0882 0.42616,-0.17634 0.32329,-0.14695 0.41146,-0.30859 0.0882,-0.17634 0.0882,-0.52902 z m 2.27773,0.83761 v 0.38207 q -0.39677,0.47024 -0.79353,0.63189 -0.24982,0.10286 -0.51433,0.10286 -0.36738,0 -0.57311,-0.13225 -0.38207,-0.24982 -0.38207,-0.94048 -0.54371,0.48493 -0.95517,0.72005 -0.61719,0.35268 -1.1756,0.35268 -0.63189,0 -1.10213,-0.41146 -0.45555,-0.41146 -0.45555,-1.11682 0,-0.99926 0.94049,-1.64584 0.64658,-0.44085 2.73327,-1.26377 v -0.8964 q 0,-0.69066 -0.39677,-0.99926 -0.2939,-0.22042 -0.73475,-0.22042 -0.39676,0 -0.72005,0.20573 -0.32329,0.19103 -0.32329,0.51432 0,0.14695 0.0147,0.3086 0.0294,0.14695 0.0588,0.26451 0,0.24981 -0.19103,0.44085 -0.19104,0.19103 -0.47024,0.19103 -0.3086,0 -0.47025,-0.20573 -0.16164,-0.22042 -0.16164,-0.44085 0,-0.54371 0.55841,-1.02865 0.69067,-0.6025 1.83688,-0.6025 1.42541,0 1.91035,0.83762 0.27921,0.48494 0.27921,1.51359 v 2.86553 q 0,0.45554 0.0588,0.66127 0.0735,0.19104 0.36737,0.19104 0.20573,0 0.35268,-0.0735 0.14695,-0.0735 0.3086,-0.20573 z"
         style="font-family:aakar;-inkscape-font-specification:aakar;fill:#333333"
         id="path986" />
      <path
         d="m 323.26975,372.97893 v 3.70314 q 0,0.33799 0.55841,0.54372 0.44085,0.16164 0.85231,0.16164 1.11682,0 1.58706,-0.94048 0.33799,-0.67597 0.33799,-1.68993 0,-1.1756 -0.42616,-1.95443 -0.49963,-0.92579 -1.44011,-0.92579 -0.48494,0 -0.91109,0.23512 -0.55841,0.3086 -0.55841,0.86701 z m -1.23439,3.93826 v -7.62671 q 0,-0.42616 -0.0735,-0.54372 -0.13226,-0.20573 -0.57311,-0.20573 l -0.32329,0.0147 v -0.23512 q 1.04335,-0.27921 1.24908,-0.33799 0.20573,-0.0735 0.8817,-0.30859 l 0.0735,0.0294 v 4.43789 q 0.11756,-0.33798 0.63188,-0.72005 0.64658,-0.47025 1.38133,-0.47025 1.24908,0 1.96914,1.04335 0.64658,0.92579 0.64658,2.21895 0,1.27847 -0.76414,2.30712 -0.99927,1.33724 -2.82145,1.33724 -0.64658,0 -1.41072,-0.26451 -0.86701,-0.30859 -0.86701,-0.67597 z"
         style="font-family:aakar;-inkscape-font-specification:aakar;fill:#333333"
         id="path988" />
      <path
         d="m 332.99785,373.09649 h -0.22042 q -0.22043,-1.04335 -0.69067,-1.4695 -0.36738,-0.33799 -0.94048,-0.33799 -0.54372,0 -0.83762,0.3086 -0.2792,0.2939 -0.2792,0.64658 0,0.36737 0.16164,0.61719 0.17634,0.24981 0.47024,0.42615 l 1.58706,0.94048 q 0.63189,0.38207 0.88171,0.69067 0.35268,0.42616 0.35268,1.04335 0,0.89639 -0.70536,1.42541 -0.6172,0.47024 -1.42542,0.47024 -0.35268,0 -0.94048,-0.13225 -0.5878,-0.13226 -0.76414,-0.13226 -0.20573,0 -0.32329,0.17634 h -0.19104 v -2.29242 h 0.23512 q 0.20573,0.92579 0.47024,1.32255 0.48494,0.73475 1.42542,0.73475 0.45554,0 0.77883,-0.22042 0.41146,-0.27921 0.41146,-0.85231 0,-0.66128 -0.76414,-1.08743 l -0.85231,-0.48494 q -1.07273,-0.6025 -1.39602,-1.07274 -0.32329,-0.48493 -0.32329,-1.07273 0,-0.70536 0.48493,-1.20499 0.57311,-0.58781 1.57237,-0.58781 0.32329,0 0.66127,0.10287 0.33799,0.0882 0.69067,0.19104 0.13226,0 0.24982,-0.16165 h 0.16164 z"
         style="font-family:aakar;-inkscape-font-specification:aakar;fill:#333333"
         id="path990" />
    </g>
  </g>
  <g
     id="uuid-9b2158ee-1b2f-4aa1-b860-e61fe22e1b94"
     data-name="FND GRAPH">
    <rect
       x="9.8654299"
       y="319.27237"
       width="28.631599"
       height="28.633011"
       rx="2.3429599"
       ry="2.3429599"
       fill="#ededed"
       id="rect18" />
    <rect
       x="43.968811"
       y="319.27237"
       width="28.631599"
       height="28.633011"
       rx="2.3429599"
       ry="2.3429599"
       fill="#ededed"
       id="rect20" />
    <rect
       x="80.143494"
       y="319.27237"
       width="28.631599"
       height="28.633011"
       rx="2.3429599"
       ry="2.3429599"
       fill="#ededed"
       id="rect22"
       style="fill:#1a1a1a" />
    <rect
       x="115.19313"
       y="319.27237"
       width="28.631599"
       height="28.633011"
       rx="2.3429599"
       ry="2.3429599"
       fill="#ededed"
       id="rect24"
       style="fill:#1a1a1a" />
    <rect
       x="9.8654299"
       y="285.27655"
       width="28.631599"
       height="28.633011"
       rx="2.3429599"
       ry="2.3429599"
       fill="#ededed"
       id="rect26" />
    <rect
       x="43.968811"
       y="285.27655"
       width="28.631599"
       height="28.633011"
       rx="2.3429599"
       ry="2.3429599"
       fill="#ededed"
       id="rect28" />
    <rect
       x="80.143494"
       y="285.27655"
       width="28.631599"
       height="28.633011"
       rx="2.3429599"
       ry="2.3429599"
       fill="#ededed"
       id="rect30"
       style="fill:#1a1a1a" />
    <rect
       x="115.19313"
       y="285.27655"
       width="28.631599"
       height="28.633011"
       rx="2.3429599"
       ry="2.3429599"
       fill="#ededed"
       id="rect32"
       style="fill:#1a1a1a" />
    <rect
       x="9.8654299"
       y="251.28075"
       width="28.631599"
       height="28.633011"
       rx="2.3429599"
       ry="2.3429599"
       fill="#ededed"
       id="rect34" />
    <rect
       x="43.968811"
       y="251.28075"
       width="28.631599"
       height="28.633011"
       rx="2.3429599"
       ry="2.3429599"
       fill="#ededed"
       id="rect36" />
    <rect
       x="80.143494"
       y="251.28075"
       width="28.631599"
       height="28.633011"
       rx="2.3429599"
       ry="2.3429599"
       fill="#ededed"
       id="rect38"
       style="fill:#1a1a1a" />
    <rect
       x="115.19313"
       y="251.28075"
       width="28.631599"
       height="28.633011"
       rx="2.3429599"
       ry="2.3429599"
       fill="#ededed"
       id="rect40"
       style="fill:#1a1a1a" />
    <rect
       x="9.8654299"
       y="217.28494"
       width="28.631599"
       height="28.633011"
       rx="2.3429599"
       ry="2.3429599"
       fill="#ededed"
       id="rect42" />
    <rect
       x="43.968811"
       y="217.28494"
       width="28.631599"
       height="28.633011"
       rx="2.3429599"
       ry="2.3429599"
       fill="#ededed"
       id="rect44" />
    <rect
       x="80.143494"
       y="217.28494"
       width="28.631599"
       height="28.633011"
       rx="2.3429599"
       ry="2.3429599"
       fill="#ededed"
       id="rect46"
       style="fill:#1a1a1a" />
    <rect
       x="115.19313"
       y="217.28494"
       width="28.631599"
       height="28.633011"
       rx="2.3429599"
       ry="2.3429599"
       fill="#ededed"
       id="rect48"
       style="fill:#1a1a1a" />
    <path
       d="m 93.70699,23.95614 -2.87167,-1.65796 c -0.24791,-0.14313 -0.55779,0.03578 -0.55779,0.32204 v 3.31592 c 0,0.28626 0.30989,0.46517 0.55779,0.32204 l 2.87167,-1.65796 c 0.24791,-0.14313 0.24791,-0.50096 0,-0.64409 z"
       fill="#ededed"
       id="path50"
       style="fill:#333333" />
    <rect
       x="9.8654299"
       y="319.27237"
       width="28.631599"
       height="28.633011"
       rx="2.3429599"
       ry="2.3429599"
       fill="#ededed"
       id="rect76"
       style="fill:#1a1a1a" />
    <rect
       x="45.903355"
       y="319.27237"
       width="28.631599"
       height="28.633011"
       rx="2.3429599"
       ry="2.3429599"
       fill="#ededed"
       id="rect78"
       style="fill:#1a1a1a" />
    <rect
       x="9.8654299"
       y="285.27655"
       width="28.631599"
       height="28.633011"
       rx="2.3429599"
       ry="2.3429599"
       fill="#ededed"
       id="rect84"
       style="fill:#1a1a1a" />
    <rect
       x="45.903355"
       y="285.27655"
       width="28.631599"
       height="28.633011"
       rx="2.3429599"
       ry="2.3429599"
       fill="#ededed"
       id="rect86"
       style="fill:#1a1a1a" />
    <rect
       x="9.8654299"
       y="251.28075"
       width="28.631599"
       height="28.633011"
       rx="2.3429599"
       ry="2.3429599"
       fill="#ededed"
       id="rect92"
       style="fill:#1a1a1a" />
    <rect
       x="45.903355"
       y="251.28075"
       width="28.631599"
       height="28.633011"
       rx="2.3429599"
       ry="2.3429599"
       fill="#ededed"
       id="rect94"
       style="fill:#1a1a1a" />
    <rect
       x="9.8654299"
       y="217.28494"
       width="28.631599"
       height="28.633011"
       rx="2.3429599"
       ry="2.3429599"
       fill="#ededed"
       id="rect100"
       style="fill:#1a1a1a" />
    <rect
       x="45.903355"
       y="217.28494"
       width="28.631599"
       height="28.633011"
       rx="2.3429599"
       ry="2.3429599"
       fill="#ededed"
       id="rect102"
       style="fill:#1a1a1a" />
    <rect
       x="150.42207"
       y="319.27237"
       width="28.631599"
       height="28.633011"
       rx="2.3429599"
       ry="2.3429599"
       fill="#ededed"
       id="rect76-3"
       style="fill:#1a1a1a" />
    <rect
       x="185.32368"
       y="319.27237"
       width="28.631599"
       height="28.633011"
       rx="2.3429599"
       ry="2.3429599"
       fill="#ededed"
       id="rect78-6"
       style="fill:#1a1a1a" />
    <rect
       x="221.03731"
       y="319.27237"
       width="28.631599"
       height="28.633011"
       rx="2.3429599"
       ry="2.3429599"
       fill="#ededed"
       id="rect80-7"
       style="fill:#1a1a1a" />
    <rect
       x="255.35959"
       y="319.27237"
       width="28.631599"
       height="28.633011"
       rx="2.3429599"
       ry="2.3429599"
       fill="#ededed"
       id="rect82-5"
       style="fill:#1a1a1a" />
    <rect
       x="150.42207"
       y="285.27655"
       width="28.631599"
       height="28.633011"
       rx="2.3429599"
       ry="2.3429599"
       fill="#ededed"
       id="rect84-3"
       style="fill:#1a1a1a" />
    <rect
       x="185.32368"
       y="285.27655"
       width="28.631599"
       height="28.633011"
       rx="2.3429599"
       ry="2.3429599"
       fill="#ededed"
       id="rect86-5"
       style="fill:#1a1a1a" />
    <rect
       x="221.03731"
       y="285.27655"
       width="28.631599"
       height="28.633011"
       rx="2.3429599"
       ry="2.3429599"
       fill="#ededed"
       id="rect88-6"
       style="fill:#1a1a1a" />
    <rect
       x="255.35959"
       y="285.27655"
       width="28.631599"
       height="28.633011"
       rx="2.3429599"
       ry="2.3429599"
       fill="#ededed"
       id="rect90-2"
       style="fill:#1a1a1a" />
    <rect
       x="150.42207"
       y="251.28075"
       width="28.631599"
       height="28.633011"
       rx="2.3429599"
       ry="2.3429599"
       fill="#ededed"
       id="rect92-9"
       style="fill:#1a1a1a" />
    <rect
       x="185.32368"
       y="251.28075"
       width="28.631599"
       height="28.633011"
       rx="2.3429599"
       ry="2.3429599"
       fill="#ededed"
       id="rect94-1"
       style="fill:#1a1a1a" />
    <rect
       x="221.03731"
       y="251.28075"
       width="28.631599"
       height="28.633011"
       rx="2.3429599"
       ry="2.3429599"
       fill="#ededed"
       id="rect96-2"
       style="fill:#1a1a1a" />
    <rect
       x="255.35959"
       y="251.28075"
       width="28.631599"
       height="28.633011"
       rx="2.3429599"
       ry="2.3429599"
       fill="#ededed"
       id="rect98-7"
       style="fill:#1a1a1a" />
    <rect
       x="150.42207"
       y="217.28494"
       width="28.631599"
       height="28.633011"
       rx="2.3429599"
       ry="2.3429599"
       fill="#ededed"
       id="rect100-0"
       style="fill:#1a1a1a" />
    <rect
       x="185.32368"
       y="217.28494"
       width="28.631599"
       height="28.633011"
       rx="2.3429599"
       ry="2.3429599"
       fill="#ededed"
       id="rect102-9"
       style="fill:#1a1a1a" />
    <rect
       x="221.03731"
       y="217.28494"
       width="28.631599"
       height="28.633011"
       rx="2.3429599"
       ry="2.3429599"
       fill="#ededed"
       id="rect104-3"
       style="fill:#1a1a1a" />
    <rect
       x="255.35959"
       y="217.28494"
       width="28.631599"
       height="28.633011"
       rx="2.3429599"
       ry="2.3429599"
       fill="#ededed"
       id="rect106-6"
       style="fill:#1a1a1a" />
    <rect
       x="290.05475"
       y="319.27237"
       width="28.631599"
       height="28.633011"
       rx="2.3429599"
       ry="2.3429599"
       fill="#ededed"
       id="rect76-3-0"
       style="fill:#1a1a1a" />
    <rect
       x="325.64633"
       y="319.27237"
       width="28.631599"
       height="28.633011"
       rx="2.3429599"
       ry="2.3429599"
       fill="#ededed"
       id="rect78-6-6"
       style="fill:#1a1a1a" />
    <rect
       x="360.87088"
       y="319.27237"
       width="28.631599"
       height="28.633011"
       rx="2.3429599"
       ry="2.3429599"
       fill="#ededed"
       id="rect80-7-2"
       style="fill:#1a1a1a" />
    <rect
       x="395.85309"
       y="319.27237"
       width="28.631599"
       height="28.633011"
       rx="2.3429599"
       ry="2.3429599"
       fill="#ededed"
       id="rect82-5-6"
       style="fill:#1a1a1a" />
    <rect
       x="290.05475"
       y="285.27655"
       width="28.631599"
       height="28.633011"
       rx="2.3429599"
       ry="2.3429599"
       fill="#ededed"
       id="rect84-3-1"
       style="fill:#1a1a1a" />
    <rect
       x="325.64633"
       y="285.27655"
       width="28.631599"
       height="28.633011"
       rx="2.3429599"
       ry="2.3429599"
       fill="#ededed"
       id="rect86-5-8"
       style="fill:#1a1a1a" />
    <rect
       x="360.87088"
       y="285.27655"
       width="28.631599"
       height="28.633011"
       rx="2.3429599"
       ry="2.3429599"
       fill="#ededed"
       id="rect88-6-7"
       style="fill:#1a1a1a" />
    <rect
       x="395.85309"
       y="285.27655"
       width="28.631599"
       height="28.633011"
       rx="2.3429599"
       ry="2.3429599"
       fill="#ededed"
       id="rect90-2-9"
       style="fill:#1a1a1a" />
    <rect
       x="290.05475"
       y="251.28073"
       width="28.631599"
       height="28.633011"
       rx="2.3429599"
       ry="2.3429599"
       fill="#ededed"
       id="rect92-9-2"
       style="fill:#1a1a1a" />
    <rect
       x="325.64633"
       y="251.28073"
       width="28.631599"
       height="28.633011"
       rx="2.3429599"
       ry="2.3429599"
       fill="#ededed"
       id="rect94-1-0"
       style="fill:#1a1a1a" />
    <rect
       x="360.87088"
       y="251.28073"
       width="28.631599"
       height="28.633011"
       rx="2.3429599"
       ry="2.3429599"
       fill="#ededed"
       id="rect96-2-2"
       style="fill:#1a1a1a" />
    <rect
       x="395.85309"
       y="251.28073"
       width="28.631599"
       height="28.633011"
       rx="2.3429599"
       ry="2.3429599"
       fill="#ededed"
       id="rect98-7-3"
       style="fill:#1a1a1a" />
    <rect
       x="290.05475"
       y="217.28494"
       width="28.631599"
       height="28.633011"
       rx="2.3429599"
       ry="2.3429599"
       fill="#ededed"
       id="rect100-0-7"
       style="fill:#1a1a1a" />
    <rect
       x="325.64633"
       y="217.28494"
       width="28.631599"
       height="28.633011"
       rx="2.3429599"
       ry="2.3429599"
       fill="#ededed"
       id="rect102-9-5"
       style="fill:#1a1a1a" />
    <rect
       x="360.87088"
       y="217.28494"
       width="28.631599"
       height="28.633011"
       rx="2.3429599"
       ry="2.3429599"
       fill="#ededed"
       id="rect104-3-9"
       style="fill:#1a1a1a" />
    <rect
       x="395.85309"
       y="217.28494"
       width="28.631599"
       height="28.633011"
       rx="2.3429599"
       ry="2.3429599"
       fill="#ededed"
       id="rect106-6-2"
       style="fill:#1a1a1a" />
    <rect
       x="430.87024"
       y="319.2724"
       width="28.631599"
       height="28.633011"
       rx="2.3429599"
       ry="2.3429599"
       fill="#ededed"
       id="rect76-3-0-2"
       style="fill:#1a1a1a" />
    <rect
       x="465.58823"
       y="319.53665"
       width="28.631599"
       height="28.633011"
       rx="2.3429599"
       ry="2.3429599"
       fill="#ededed"
       id="rect78-6-6-8"
       style="fill:#1a1a1a" />
    <rect
       x="500.82803"
       y="319.2724"
       width="28.631599"
       height="28.633011"
       rx="2.3429599"
       ry="2.3429599"
       fill="#ededed"
       id="rect80-7-2-9"
       style="fill:#1a1a1a" />
    <rect
       x="535.3205"
       y="319.2724"
       width="28.631599"
       height="28.633011"
       rx="2.3429599"
       ry="2.3429599"
       fill="#ededed"
       id="rect82-5-6-7"
       style="fill:#1a1a1a" />
    <rect
       x="430.87024"
       y="285.27655"
       width="28.631599"
       height="28.633011"
       rx="2.3429599"
       ry="2.3429599"
       fill="#ededed"
       id="rect84-3-1-3"
       style="fill:#1a1a1a" />
    <rect
       x="465.58823"
       y="285.5408"
       width="28.631599"
       height="28.633011"
       rx="2.3429599"
       ry="2.3429599"
       fill="#ededed"
       id="rect86-5-8-6"
       style="fill:#1a1a1a" />
    <rect
       x="500.82803"
       y="285.27655"
       width="28.631599"
       height="28.633011"
       rx="2.3429599"
       ry="2.3429599"
       fill="#ededed"
       id="rect88-6-7-1"
       style="fill:#1a1a1a" />
    <rect
       x="535.3205"
       y="285.27655"
       width="28.631599"
       height="28.633011"
       rx="2.3429599"
       ry="2.3429599"
       fill="#ededed"
       id="rect90-2-9-2"
       style="fill:#1a1a1a" />
    <rect
       x="430.87024"
       y="251.28075"
       width="28.631599"
       height="28.633011"
       rx="2.3429599"
       ry="2.3429599"
       fill="#ededed"
       id="rect92-9-2-9"
       style="fill:#1a1a1a" />
    <rect
       x="465.58823"
       y="251.545"
       width="28.631599"
       height="28.633011"
       rx="2.3429599"
       ry="2.3429599"
       fill="#ededed"
       id="rect94-1-0-3"
       style="fill:#1a1a1a" />
    <rect
       x="500.82803"
       y="251.28075"
       width="28.631599"
       height="28.633011"
       rx="2.3429599"
       ry="2.3429599"
       fill="#ededed"
       id="rect96-2-2-1"
       style="fill:#1a1a1a" />
    <rect
       x="535.3205"
       y="251.28075"
       width="28.631599"
       height="28.633011"
       rx="2.3429599"
       ry="2.3429599"
       fill="#ededed"
       id="rect98-7-3-9"
       style="fill:#1a1a1a" />
    <rect
       x="430.87024"
       y="217.28496"
       width="28.631599"
       height="28.633011"
       rx="2.3429599"
       ry="2.3429599"
       fill="#ededed"
       id="rect100-0-7-4"
       style="fill:#1a1a1a" />
    <rect
       x="465.85248"
       y="217.54921"
       width="28.631599"
       height="28.633011"
       rx="2.3429599"
       ry="2.3429599"
       fill="#ededed"
       id="rect102-9-5-7"
       style="fill:#1a1a1a" />
    <rect
       x="500.82803"
       y="217.28496"
       width="28.631599"
       height="28.633011"
       rx="2.3429599"
       ry="2.3429599"
       fill="#ededed"
       id="rect104-3-9-8"
       style="fill:#1a1a1a" />
    <rect
       x="535.3205"
       y="217.28496"
       width="28.631599"
       height="28.633011"
       rx="2.3429599"
       ry="2.3429599"
       fill="#ededed"
       id="rect106-6-2-4"
       style="fill:#1a1a1a" />
  </g>
</svg>
