<?xml version="1.0" encoding="UTF-8" standalone="no"?>
<svg
   width="570"
   height="379.99997"
   viewBox="0 0 570 380"
   version="1.1"
   id="svg72"
   xmlns:xlink="http://www.w3.org/1999/xlink"
   xmlns="http://www.w3.org/2000/svg"
   xmlns:svg="http://www.w3.org/2000/svg">
  <defs
     id="defs7">
    <linearGradient
       id="uuid-17477a25-53f1-43a0-99f1-583307600d51"
       x1="75"
       y1="0"
       x2="75"
       y2="380"
       gradientUnits="userSpaceOnUse"
       gradientTransform="scale(4.0000002,1)">
      <stop
         offset="0"
         stop-color="#2a2a2b"
         id="stop2" />
      <stop
         offset="1"
         stop-color="#171717"
         id="stop4" />
    </linearGradient>
    <clipPath
       clipPathUnits="userSpaceOnUse"
       id="clipPath20816">
      <use
         x="0"
         y="0"
         xlink:href="#g20812"
         id="use20818"
         width="100%"
         height="100%" />
    </clipPath>
  </defs>
  <g
     id="uuid-59b7b1a8-30db-41ce-8c27-06ef1a2453cd"
     data-name="FND BG"
     transform="scale(0.95,1)"
     style="fill:#1d1c25;fill-opacity:1">
    <rect
       width="600"
       height="380"
       fill="url(#uuid-17477a25-53f1-43a0-99f1-583307600d51)"
       id="rect9"
       x="0"
       y="0"
       style="fill:#1d1c25;stroke-width:2;fill-opacity:1" />
  </g>
  <g
     aria-label="spectavi labs"
     id="text35212"
     style="font-size:14.6667px;line-height:1.25;fill:#b3b3b3"
     transform="translate(-0.23139384,-0.94521876)">
    <path
       d="m 252.73867,363.92975 h -0.21484 q -0.21485,-1.01693 -0.67318,-1.4323 -0.35807,-0.32942 -0.91667,-0.32942 -0.52995,0 -0.81641,0.30078 -0.27213,0.28646 -0.27213,0.63021 0,0.35807 0.15755,0.60156 0.17188,0.24349 0.45833,0.41537 l 1.54688,0.91667 q 0.61589,0.37239 0.85938,0.67317 0.34375,0.41537 0.34375,1.01693 0,0.8737 -0.6875,1.38933 -0.60157,0.45833 -1.38933,0.45833 -0.34375,0 -0.91667,-0.1289 -0.57291,-0.12891 -0.74479,-0.12891 -0.20052,0 -0.3151,0.17188 h -0.1862 v -2.23438 h 0.22916 q 0.20053,0.90234 0.45834,1.28906 0.47266,0.71615 1.38933,0.71615 0.44401,0 0.75911,-0.21485 0.40104,-0.27213 0.40104,-0.83073 0,-0.64453 -0.74479,-1.05989 l -0.83073,-0.47266 q -1.04558,-0.58724 -1.36068,-1.04558 -0.31511,-0.47265 -0.31511,-1.04557 0,-0.6875 0.47266,-1.17448 0.5586,-0.57292 1.53256,-0.57292 0.3151,0 0.64453,0.10026 0.32943,0.0859 0.67318,0.1862 0.12891,0 0.24349,-0.15756 h 0.15755 z"
       style="font-family:aakar;-inkscape-font-specification:aakar"
       id="path968" />
    <path
       d="m 254.87279,370.30346 v -6.70314 q 0,-0.38672 -0.0286,-0.5013 -0.0859,-0.31511 -0.51563,-0.31511 l -0.40104,0.0143 v -0.22917 q 1.03125,-0.32943 2.0625,-0.73047 l 0.0859,0.0286 v 1.04558 l 0.0287,0.0286 q 0.32942,-0.42968 0.73047,-0.70182 0.60156,-0.40104 1.33203,-0.40104 1.00261,0 1.67579,0.84505 0.6875,0.83073 0.6875,2.23438 0,1.37501 -0.75912,2.44923 -0.85938,1.20312 -2.2487,1.20312 -0.44401,0 -0.77344,-0.1289 -0.31511,-0.12891 -0.67318,-0.48698 v 2.2487 q 0,0.67318 0.24349,0.8737 0.24349,0.20052 1.01693,0.20052 v 0.25781 h -3.46615 v -0.24349 q 0.65885,0 0.85937,-0.25781 0.14323,-0.1862 0.14323,-0.73047 z m 1.20313,-6.66017 v 3.52344 q 0,0.27214 0.45833,0.61589 0.45834,0.32943 1.00261,0.32943 0.85938,0 1.33204,-0.78776 0.42968,-0.70183 0.42968,-1.97657 0,-1.14584 -0.48698,-1.89063 -0.47265,-0.75912 -1.33203,-0.75912 -0.42969,0 -0.88802,0.27214 -0.45834,0.27214 -0.51563,0.67318 z"
       style="font-family:aakar;-inkscape-font-specification:aakar"
       id="path970" />
    <path
       d="m 266.80381,366.07819 0.22917,0.10026 q -0.24349,0.74479 -0.78776,1.36068 -0.91667,1.03125 -2.24871,1.03125 -1.21745,0 -1.94792,-0.84505 -0.73047,-0.84505 -0.73047,-2.36329 0,-1.79037 1.03125,-2.75 0.83073,-0.77344 1.89063,-0.77344 1.07422,0 1.70443,0.60156 0.70183,0.65886 0.81641,2.01954 h -4.45444 q 0,1.71875 0.77344,2.50651 0.60157,0.61589 1.50391,0.61589 0.83073,0 1.46094,-0.54427 0.35808,-0.31511 0.75912,-0.95964 z m -4.45444,-2.07683 h 2.95053 q -0.11458,-0.74479 -0.30078,-1.07422 -0.32943,-0.57292 -1.07422,-0.57292 -0.64454,0 -1.03126,0.3724 -0.37239,0.35807 -0.54427,1.27474 z"
       style="font-family:aakar;-inkscape-font-specification:aakar"
       id="path972" />
    <path
       d="m 273.01997,366.19277 0.20052,0.12891 q -0.57292,1.20313 -1.27474,1.73308 -0.6875,0.51562 -1.58985,0.51562 -1.00261,0 -1.76172,-0.74479 -0.91667,-0.90235 -0.91667,-2.44922 0,-1.66147 1.01693,-2.64975 0.91667,-0.88802 2.19141,-0.88802 0.38672,0 0.80208,0.1289 0.41537,0.11459 0.71615,0.32943 0.30078,0.20052 0.45834,0.48698 0.15755,0.27214 0.15755,0.50131 0,0.27213 -0.17188,0.45833 -0.15755,0.17188 -0.48698,0.17188 -0.27213,0 -0.45833,-0.1862 -0.17188,-0.1862 -0.24349,-0.47266 l -0.0859,-0.31511 q -0.10026,-0.38671 -0.22917,-0.5013 -0.20052,-0.1862 -0.71614,-0.1862 -0.61589,0 -1.11719,0.47266 -0.73047,0.6875 -0.73047,2.07683 0,1.21745 0.63021,1.97657 0.63021,0.75911 1.5612,0.75911 0.70182,0 1.23177,-0.40104 0.3724,-0.28646 0.81641,-0.94532 z"
       style="font-family:aakar;-inkscape-font-specification:aakar"
       id="path974" />
    <path
       d="m 277.33118,361.98183 v 0.45833 h -1.44662 v 4.09637 q 0,0.54427 0.0859,0.80208 0.17187,0.48698 0.64453,0.48698 0.3151,0 0.54427,-0.17187 0.12891,-0.10027 0.32943,-0.32943 l 0.1862,0.15755 q -0.25781,0.47266 -0.73047,0.78776 -0.45834,0.30078 -0.94532,0.30078 -0.60156,0 -0.93099,-0.37239 -0.38672,-0.44401 -0.38672,-1.44662 v -4.31121 h -0.75911 l -0.0573,-0.10026 q 0,-0.0859 0.28646,-0.28646 0.1862,-0.1289 0.34375,-0.28646 0.32943,-0.34375 0.64454,-0.74479 0.24349,-0.31511 0.64453,-0.88802 0.10026,0 0.10026,0.1862 v 1.66146 z"
       style="font-family:aakar;-inkscape-font-specification:aakar"
       id="path976" />
    <path
       d="m 281.77129,366.66543 v -2.07683 q -1.41797,0.47266 -1.96224,1.08855 -0.35807,0.40104 -0.35807,0.91667 0,0.51562 0.27213,0.83073 0.27214,0.3151 0.67318,0.3151 0.21484,0 0.47266,-0.0859 0.25781,-0.0859 0.41536,-0.17188 0.31511,-0.14323 0.40105,-0.30078 0.0859,-0.17188 0.0859,-0.51563 z m 2.22006,0.81641 v 0.3724 q -0.38672,0.45833 -0.77344,0.61588 -0.24349,0.10026 -0.5013,0.10026 -0.35808,0 -0.5586,-0.1289 -0.37239,-0.24349 -0.37239,-0.91667 -0.52995,0.47266 -0.931,0.70182 -0.60156,0.34375 -1.14583,0.34375 -0.61589,0 -1.07422,-0.40104 -0.44401,-0.40104 -0.44401,-1.08854 0,-0.97396 0.91666,-1.60417 0.63021,-0.42969 2.66407,-1.23178 v -0.8737 q 0,-0.67318 -0.38672,-0.97396 -0.28646,-0.21484 -0.71614,-0.21484 -0.38672,0 -0.70183,0.20052 -0.3151,0.1862 -0.3151,0.5013 0,0.14323 0.0143,0.30078 0.0287,0.14323 0.0573,0.25782 0,0.24349 -0.1862,0.42969 -0.1862,0.18619 -0.45833,0.18619 -0.30078,0 -0.45834,-0.20052 -0.15755,-0.21484 -0.15755,-0.42968 0,-0.52995 0.54427,-1.00261 0.67318,-0.58724 1.79037,-0.58724 1.38933,0 1.86199,0.81641 0.27213,0.47265 0.27213,1.47526 v 2.79297 q 0,0.44402 0.0573,0.64454 0.0716,0.1862 0.35808,0.1862 0.20052,0 0.34375,-0.0716 0.14323,-0.0716 0.30078,-0.20052 z"
       style="font-family:aakar;-inkscape-font-specification:aakar"
       id="path978" />
    <path
       d="m 290.85204,361.98183 v 0.21484 q -0.34375,0.0287 -0.5013,0.24349 -0.15755,0.20052 -0.42969,0.8737 l -1.83334,4.59767 q -0.15755,0.3724 -0.21484,0.5013 -0.10026,0.21485 -0.17188,0.21485 -0.10026,0 -0.18619,-0.15756 -0.0716,-0.15755 -0.20052,-0.51562 -0.40105,-1.03126 -1.04558,-2.56381 -0.80209,-1.90495 -1.18881,-2.66407 -0.15755,-0.3151 -0.34375,-0.41536 -0.18619,-0.11459 -0.44401,-0.11459 v -0.21484 h 2.8073 v 0.21484 q -0.3151,0 -0.48698,0.0859 -0.17187,0.0859 -0.17187,0.34375 0,0.12891 0.043,0.25781 0.043,0.12891 0.0859,0.24349 l 1.46094,3.66668 q 0.10026,-0.27214 0.93099,-2.37761 0.57292,-1.44662 0.57292,-1.7474 0,-0.22917 -0.20052,-0.34375 -0.1862,-0.12891 -0.47266,-0.12891 v -0.21484 z"
       style="font-family:aakar;-inkscape-font-specification:aakar"
       id="path980" />
    <path
       d="m 291.41064,368.42715 v -0.21484 q 0.70182,0 0.91666,-0.21484 0.21485,-0.21485 0.21485,-1.03126 v -3.32292 q 0,-0.5586 -0.15755,-0.74479 -0.10026,-0.11459 -0.34375,-0.11459 -0.14323,0 -0.22917,0.0143 -0.0716,0 -0.34375,0.043 v -0.21484 q 0.67318,-0.21484 1.10287,-0.3724 0.74479,-0.28646 1.11719,-0.41536 l 0.0573,0.043 v 5.08464 q 0,0.75912 0.17187,1.00261 0.1862,0.24349 0.88803,0.24349 v 0.21484 z m 0.88802,-9.0521 q 0,-0.25781 0.15755,-0.45833 0.21485,-0.27214 0.5586,-0.27214 0.3151,0 0.52995,0.21484 0.21484,0.21485 0.21484,0.51563 0,0.31511 -0.21484,0.52995 -0.20053,0.20052 -0.52995,0.20052 -0.34375,0 -0.52995,-0.24349 -0.1862,-0.24349 -0.1862,-0.48698 z"
       style="font-family:aakar;-inkscape-font-specification:aakar"
       id="path982" />
    <path
       d="m 302.75441,368.42715 v -0.21484 q 0.63021,0 0.85938,-0.21484 0.24349,-0.22917 0.24349,-0.81641 v -6.83205 q 0,-0.51563 -0.11458,-0.6875 -0.11459,-0.1862 -0.52995,-0.1862 l -0.48698,0.0287 v -0.22917 q 1.08854,-0.27214 1.41797,-0.35807 0.0859,-0.0286 0.85938,-0.27214 l 0.0573,0.0286 v 8.5508 q 0,0.61588 0.21484,0.80208 0.21485,0.1862 0.85938,0.1862 v 0.21484 z"
       style="font-family:aakar;-inkscape-font-specification:aakar"
       id="path984" />
    <path
       d="m 310.5461,366.66543 v -2.07683 q -1.41797,0.47266 -1.96224,1.08855 -0.35808,0.40104 -0.35808,0.91667 0,0.51562 0.27214,0.83073 0.27213,0.3151 0.67318,0.3151 0.21484,0 0.47265,-0.0859 0.25782,-0.0859 0.41537,-0.17188 0.3151,-0.14323 0.40104,-0.30078 0.0859,-0.17188 0.0859,-0.51563 z m 2.22006,0.81641 v 0.3724 q -0.38672,0.45833 -0.77344,0.61588 -0.24349,0.10026 -0.50131,0.10026 -0.35807,0 -0.55859,-0.1289 -0.3724,-0.24349 -0.3724,-0.91667 -0.52995,0.47266 -0.93099,0.70182 -0.60156,0.34375 -1.14583,0.34375 -0.61589,0 -1.07423,-0.40104 -0.44401,-0.40104 -0.44401,-1.08854 0,-0.97396 0.91667,-1.60417 0.63021,-0.42969 2.66407,-1.23178 v -0.8737 q 0,-0.67318 -0.38672,-0.97396 -0.28646,-0.21484 -0.71615,-0.21484 -0.38672,0 -0.70182,0.20052 -0.31511,0.1862 -0.31511,0.5013 0,0.14323 0.0143,0.30078 0.0286,0.14323 0.0573,0.25782 0,0.24349 -0.1862,0.42969 -0.1862,0.18619 -0.45833,0.18619 -0.30079,0 -0.45834,-0.20052 -0.15755,-0.21484 -0.15755,-0.42968 0,-0.52995 0.54427,-1.00261 0.67318,-0.58724 1.79037,-0.58724 1.38933,0 1.86198,0.81641 0.27214,0.47265 0.27214,1.47526 v 2.79297 q 0,0.44402 0.0573,0.64454 0.0716,0.1862 0.35807,0.1862 0.20053,0 0.34376,-0.0716 0.14322,-0.0716 0.30078,-0.20052 z"
       style="font-family:aakar;-inkscape-font-specification:aakar"
       id="path986" />
    <path
       d="m 314.98621,363.81516 v 3.60939 q 0,0.32943 0.54427,0.52995 0.42969,0.15755 0.83073,0.15755 1.08855,0 1.54688,-0.91667 0.32943,-0.65885 0.32943,-1.64714 0,-1.14583 -0.41536,-1.90495 -0.48699,-0.90235 -1.40365,-0.90235 -0.47266,0 -0.88803,0.22917 -0.54427,0.30078 -0.54427,0.84505 z m -1.20313,3.83856 v -7.43362 q 0,-0.41536 -0.0716,-0.52994 -0.12891,-0.20053 -0.5586,-0.20053 l -0.3151,0.0143 v -0.22917 q 1.01693,-0.27214 1.21745,-0.32943 0.20052,-0.0716 0.85938,-0.30078 l 0.0716,0.0286 v 4.32553 q 0.11458,-0.32943 0.61589,-0.70183 0.63021,-0.45833 1.34636,-0.45833 1.21745,0 1.91927,1.01693 0.63021,0.90234 0.63021,2.16276 0,1.2461 -0.74479,2.24871 -0.97396,1.30338 -2.75001,1.30338 -0.63021,0 -1.375,-0.25781 -0.84506,-0.30078 -0.84506,-0.65885 z"
       style="font-family:aakar;-inkscape-font-specification:aakar"
       id="path988" />
    <path
       d="m 324.46801,363.92975 h -0.21485 q -0.21484,-1.01693 -0.67318,-1.4323 -0.35807,-0.32942 -0.91667,-0.32942 -0.52995,0 -0.8164,0.30078 -0.27214,0.28646 -0.27214,0.63021 0,0.35807 0.15755,0.60156 0.17188,0.24349 0.45834,0.41537 l 1.54687,0.91667 q 0.61589,0.37239 0.85938,0.67317 0.34375,0.41537 0.34375,1.01693 0,0.8737 -0.6875,1.38933 -0.60156,0.45833 -1.38933,0.45833 -0.34375,0 -0.91666,-0.1289 -0.57292,-0.12891 -0.7448,-0.12891 -0.20052,0 -0.3151,0.17188 h -0.1862 v -2.23438 h 0.22917 q 0.20052,0.90234 0.45833,1.28906 0.47266,0.71615 1.38933,0.71615 0.44401,0 0.75911,-0.21485 0.40105,-0.27213 0.40105,-0.83073 0,-0.64453 -0.7448,-1.05989 l -0.83073,-0.47266 q -1.04557,-0.58724 -1.36068,-1.04558 -0.3151,-0.47265 -0.3151,-1.04557 0,-0.6875 0.47265,-1.17448 0.5586,-0.57292 1.53256,-0.57292 0.3151,0 0.64453,0.10026 0.32943,0.0859 0.67318,0.1862 0.12891,0 0.24349,-0.15756 h 0.15755 z"
       style="font-family:aakar;-inkscape-font-specification:aakar"
       id="path990" />
  </g>
  <g
     id="g20814"
     clip-path="url(#clipPath20816)"
     transform="matrix(0.95,0,0,1,-157.4911,8.149913)"
     style="fill:#b3b3b3">
    <g
       id="g20812"
       style="fill:#b3b3b3">
      <g
         aria-label="MIDI CC   CV"
         transform="scale(1.0259784,0.97467939)"
         id="text2404"
         style="font-size:15.0477px;line-height:1.25;stroke-width:1.02598">
        <path
           d="m 198.3973,11.896884 3.08596,8.199821 3.0786,-8.199821 h 2.40264 v 10.697974 h -1.85157 v -3.526805 l 0.18368,-4.717101 -3.15943,8.243906 h -1.3299 l -3.15208,-8.236558 0.18369,4.709753 v 3.526805 h -1.85157 V 11.896884 Z"
           style="font-weight:500;font-family:Roboto;-inkscape-font-specification:'Roboto Medium'"
           id="path910" />
        <path
           d="m 211.12319,22.594858 h -1.85157 V 11.896884 h 1.85157 z"
           style="font-weight:500;font-family:Roboto;-inkscape-font-specification:'Roboto Medium'"
           id="path912" />
        <path
           d="M 213.40826,22.594858 V 11.896884 h 3.15943 q 1.41807,0 2.51285,0.631886 1.10213,0.631886 1.70462,1.792792 0.6025,1.160907 0.6025,2.659799 v 0.536368 q 0,1.520934 -0.60985,2.674493 -0.60249,1.15356 -1.72666,1.778098 -1.11682,0.624538 -2.56428,0.624538 z m 1.85892,-9.199082 v 7.714885 h 1.21234 q 1.46216,0 2.24099,-0.911091 0.78619,-0.918439 0.80088,-2.630408 v -0.595149 q 0,-1.74136 -0.75679,-2.659798 -0.7568,-0.918439 -2.19691,-0.918439 z"
           style="font-weight:500;font-family:Roboto;-inkscape-font-specification:'Roboto Medium'"
           id="path914" />
        <path
           d="m 225.20102,22.594858 h -1.85158 V 11.896884 h 1.85158 z"
           style="font-weight:500;font-family:Roboto;-inkscape-font-specification:'Roboto Medium'"
           id="path916" />
        <path
           d="m 239.3964,19.112139 q -0.16164,1.711969 -1.26377,2.674493 -1.10212,0.955176 -2.93165,0.955176 -1.27847,0 -2.25569,-0.602495 -0.96987,-0.609844 -1.49889,-1.726665 -0.52902,-1.116822 -0.55106,-2.593671 v -0.999261 q 0,-1.513587 0.53636,-2.667147 0.53637,-1.153559 1.53563,-1.778097 1.00661,-0.624538 2.32182,-0.624538 1.77075,0 2.85083,0.962524 1.08008,0.962523 1.25642,2.718578 h -1.85157 q -0.13225,-1.153559 -0.67597,-1.660537 -0.53637,-0.514326 -1.57971,-0.514326 -1.21234,0 -1.86627,0.889049 -0.64658,0.881701 -0.66128,2.593671 v 0.947829 q 0,1.734012 0.61719,2.645103 0.62454,0.911091 1.82219,0.911091 1.09477,0 1.64584,-0.492283 0.55106,-0.492283 0.69801,-1.638494 z"
           style="font-weight:500;font-family:Roboto;-inkscape-font-specification:'Roboto Medium'"
           id="path918" />
        <path
           d="m 249.22003,19.112139 q -0.16165,1.711969 -1.26377,2.674493 -1.10213,0.955176 -2.93166,0.955176 -1.27847,0 -2.25569,-0.602495 -0.96987,-0.609844 -1.49889,-1.726665 -0.52902,-1.116822 -0.55106,-2.593671 v -0.999261 q 0,-1.513587 0.53637,-2.667147 0.53637,-1.153559 1.53563,-1.778097 1.00661,-0.624538 2.32181,-0.624538 1.77075,0 2.85083,0.962524 1.08009,0.962523 1.25643,2.718578 h -1.85157 q -0.13226,-1.153559 -0.67598,-1.660537 -0.53636,-0.514326 -1.57971,-0.514326 -1.21234,0 -1.86627,0.889049 -0.64658,0.881701 -0.66127,2.593671 v 0.947829 q 0,1.734012 0.61719,2.645103 0.62454,0.911091 1.82218,0.911091 1.09478,0 1.64584,-0.492283 0.55107,-0.492283 0.69802,-1.638494 z"
           style="font-weight:500;font-family:Roboto;-inkscape-font-specification:'Roboto Medium'"
           id="path920" />
        <path
           d="m 270.28534,19.112139 q -0.16165,1.711969 -1.26378,2.674493 -1.10212,0.955176 -2.93165,0.955176 -1.27847,0 -2.25569,-0.602495 -0.96987,-0.609844 -1.49889,-1.726665 -0.52902,-1.116822 -0.55106,-2.593671 v -0.999261 q 0,-1.513587 0.53636,-2.667147 0.53637,-1.153559 1.53563,-1.778097 1.00661,-0.624538 2.32182,-0.624538 1.77075,0 2.85083,0.962524 1.08009,0.962523 1.25643,2.718578 h -1.85158 q -0.13225,-1.153559 -0.67597,-1.660537 -0.53637,-0.514326 -1.57971,-0.514326 -1.21234,0 -1.86627,0.889049 -0.64658,0.881701 -0.66128,2.593671 v 0.947829 q 0,1.734012 0.61719,2.645103 0.62454,0.911091 1.82219,0.911091 1.09478,0 1.64584,-0.492283 0.55106,-0.492283 0.69801,-1.638494 z"
           style="font-weight:500;font-family:Roboto;-inkscape-font-specification:'Roboto Medium'"
           id="path922" />
        <path
           d="m 275.71515,20.265698 2.71858,-8.368814 h 2.0426 l -3.85009,10.697974 h -1.80014 l -3.8354,-10.697974 h 2.03526 z"
           style="font-weight:500;font-family:Roboto;-inkscape-font-specification:'Roboto Medium'"
           id="path924" />
      </g>
    </g>
  </g>
  <g
     id="uuid-9b2158ee-1b2f-4aa1-b860-e61fe22e1b94-3"
     data-name="FND GRAPH"
     transform="translate(-0.44148,0.207103)"
     style="fill:#666666">
    <rect
       x="9.8654299"
       y="319.27237"
       width="28.631599"
       height="28.633011"
       rx="2.3429599"
       ry="2.3429599"
       fill="#ededed"
       id="rect18-6"
       style="fill:#666666" />
    <rect
       x="43.968811"
       y="319.27237"
       width="28.631599"
       height="28.633011"
       rx="2.3429599"
       ry="2.3429599"
       fill="#ededed"
       id="rect20-7"
       style="fill:#666666" />
    <rect
       x="80.143494"
       y="319.27237"
       width="28.631599"
       height="28.633011"
       rx="2.3429599"
       ry="2.3429599"
       fill="#ededed"
       id="rect22-5"
       style="fill:#666666" />
    <rect
       x="115.19313"
       y="319.27237"
       width="28.631599"
       height="28.633011"
       rx="2.3429599"
       ry="2.3429599"
       fill="#ededed"
       id="rect24-3"
       style="fill:#666666" />
    <rect
       x="9.8654299"
       y="285.27655"
       width="28.631599"
       height="28.633011"
       rx="2.3429599"
       ry="2.3429599"
       fill="#ededed"
       id="rect26-5"
       style="fill:#666666" />
    <rect
       x="43.968811"
       y="285.27655"
       width="28.631599"
       height="28.633011"
       rx="2.3429599"
       ry="2.3429599"
       fill="#ededed"
       id="rect28-6"
       style="fill:#666666" />
    <rect
       x="80.143494"
       y="285.27655"
       width="28.631599"
       height="28.633011"
       rx="2.3429599"
       ry="2.3429599"
       fill="#ededed"
       id="rect30-2"
       style="fill:#666666" />
    <rect
       x="115.19313"
       y="285.27655"
       width="28.631599"
       height="28.633011"
       rx="2.3429599"
       ry="2.3429599"
       fill="#ededed"
       id="rect32-9"
       style="fill:#666666" />
    <rect
       x="9.8654299"
       y="251.28075"
       width="28.631599"
       height="28.633011"
       rx="2.3429599"
       ry="2.3429599"
       fill="#ededed"
       id="rect34-1"
       style="fill:#666666" />
    <rect
       x="43.968811"
       y="251.28075"
       width="28.631599"
       height="28.633011"
       rx="2.3429599"
       ry="2.3429599"
       fill="#ededed"
       id="rect36-2"
       style="fill:#666666" />
    <rect
       x="80.143494"
       y="251.28075"
       width="28.631599"
       height="28.633011"
       rx="2.3429599"
       ry="2.3429599"
       fill="#ededed"
       id="rect38-7"
       style="fill:#666666" />
    <rect
       x="115.19313"
       y="251.28075"
       width="28.631599"
       height="28.633011"
       rx="2.3429599"
       ry="2.3429599"
       fill="#ededed"
       id="rect40-0"
       style="fill:#666666" />
    <rect
       x="9.8654299"
       y="217.28494"
       width="28.631599"
       height="28.633011"
       rx="2.3429599"
       ry="2.3429599"
       fill="#ededed"
       id="rect42-9"
       style="fill:#666666" />
    <rect
       x="43.968811"
       y="217.28494"
       width="28.631599"
       height="28.633011"
       rx="2.3429599"
       ry="2.3429599"
       fill="#ededed"
       id="rect44-3"
       style="fill:#666666" />
    <rect
       x="80.143494"
       y="217.28494"
       width="28.631599"
       height="28.633011"
       rx="2.3429599"
       ry="2.3429599"
       fill="#ededed"
       id="rect46-6"
       style="fill:#666666" />
    <rect
       x="115.19313"
       y="217.28494"
       width="28.631599"
       height="28.633011"
       rx="2.3429599"
       ry="2.3429599"
       fill="#ededed"
       id="rect48-0"
       style="fill:#666666" />
    <path
       d="m 93.70699,23.95614 -2.87167,-1.65796 c -0.24791,-0.14313 -0.55779,0.03578 -0.55779,0.32204 v 3.31592 c 0,0.28626 0.30989,0.46517 0.55779,0.32204 l 2.87167,-1.65796 c 0.24791,-0.14313 0.24791,-0.50096 0,-0.64409 z"
       fill="#ededed"
       id="path50-6"
       style="fill:#cccccc" />
    <rect
       x="9.8654299"
       y="319.27237"
       width="28.631599"
       height="28.633011"
       rx="2.3429599"
       ry="2.3429599"
       fill="#ededed"
       id="rect76-2"
       style="fill:#666666" />
    <rect
       x="45.903355"
       y="319.27237"
       width="28.631599"
       height="28.633011"
       rx="2.3429599"
       ry="2.3429599"
       fill="#ededed"
       id="rect78-61"
       style="fill:#666666" />
    <rect
       x="9.8654299"
       y="285.27655"
       width="28.631599"
       height="28.633011"
       rx="2.3429599"
       ry="2.3429599"
       fill="#ededed"
       id="rect84-8"
       style="fill:#666666" />
    <rect
       x="45.903355"
       y="285.27655"
       width="28.631599"
       height="28.633011"
       rx="2.3429599"
       ry="2.3429599"
       fill="#ededed"
       id="rect86-7"
       style="fill:#666666" />
    <rect
       x="9.8654299"
       y="251.28075"
       width="28.631599"
       height="28.633011"
       rx="2.3429599"
       ry="2.3429599"
       fill="#ededed"
       id="rect92-92"
       style="fill:#666666" />
    <rect
       x="45.903355"
       y="251.28075"
       width="28.631599"
       height="28.633011"
       rx="2.3429599"
       ry="2.3429599"
       fill="#ededed"
       id="rect94-0"
       style="fill:#666666" />
    <rect
       x="9.8654299"
       y="217.28494"
       width="28.631599"
       height="28.633011"
       rx="2.3429599"
       ry="2.3429599"
       fill="#ededed"
       id="rect100-2"
       style="fill:#666666" />
    <rect
       x="45.903355"
       y="217.28494"
       width="28.631599"
       height="28.633011"
       rx="2.3429599"
       ry="2.3429599"
       fill="#ededed"
       id="rect102-3"
       style="fill:#666666" />
    <rect
       x="150.42207"
       y="319.27237"
       width="28.631599"
       height="28.633011"
       rx="2.3429599"
       ry="2.3429599"
       fill="#ededed"
       id="rect76-3-7"
       style="fill:#666666" />
    <rect
       x="185.32368"
       y="319.27237"
       width="28.631599"
       height="28.633011"
       rx="2.3429599"
       ry="2.3429599"
       fill="#ededed"
       id="rect78-6-5"
       style="fill:#666666" />
    <rect
       x="221.03731"
       y="319.27237"
       width="28.631599"
       height="28.633011"
       rx="2.3429599"
       ry="2.3429599"
       fill="#ededed"
       id="rect80-7-9"
       style="fill:#666666" />
    <rect
       x="255.35959"
       y="319.27237"
       width="28.631599"
       height="28.633011"
       rx="2.3429599"
       ry="2.3429599"
       fill="#ededed"
       id="rect82-5-2"
       style="fill:#666666" />
    <rect
       x="150.42207"
       y="285.27655"
       width="28.631599"
       height="28.633011"
       rx="2.3429599"
       ry="2.3429599"
       fill="#ededed"
       id="rect84-3-2"
       style="fill:#666666" />
    <rect
       x="185.32368"
       y="285.27655"
       width="28.631599"
       height="28.633011"
       rx="2.3429599"
       ry="2.3429599"
       fill="#ededed"
       id="rect86-5-89"
       style="fill:#666666" />
    <rect
       x="221.03731"
       y="285.27655"
       width="28.631599"
       height="28.633011"
       rx="2.3429599"
       ry="2.3429599"
       fill="#ededed"
       id="rect88-6-73"
       style="fill:#666666" />
    <rect
       x="255.35959"
       y="285.27655"
       width="28.631599"
       height="28.633011"
       rx="2.3429599"
       ry="2.3429599"
       fill="#ededed"
       id="rect90-2-6"
       style="fill:#666666" />
    <rect
       x="150.42207"
       y="251.28075"
       width="28.631599"
       height="28.633011"
       rx="2.3429599"
       ry="2.3429599"
       fill="#ededed"
       id="rect92-9-1"
       style="fill:#666666" />
    <rect
       x="185.32368"
       y="251.28075"
       width="28.631599"
       height="28.633011"
       rx="2.3429599"
       ry="2.3429599"
       fill="#ededed"
       id="rect94-1-2"
       style="fill:#666666" />
    <rect
       x="221.03731"
       y="251.28075"
       width="28.631599"
       height="28.633011"
       rx="2.3429599"
       ry="2.3429599"
       fill="#ededed"
       id="rect96-2-9"
       style="fill:#666666" />
    <rect
       x="255.35959"
       y="251.28075"
       width="28.631599"
       height="28.633011"
       rx="2.3429599"
       ry="2.3429599"
       fill="#ededed"
       id="rect98-7-31"
       style="fill:#666666" />
    <rect
       x="150.42207"
       y="217.28494"
       width="28.631599"
       height="28.633011"
       rx="2.3429599"
       ry="2.3429599"
       fill="#ededed"
       id="rect100-0-9"
       style="fill:#666666" />
    <rect
       x="185.32368"
       y="217.28494"
       width="28.631599"
       height="28.633011"
       rx="2.3429599"
       ry="2.3429599"
       fill="#ededed"
       id="rect102-9-4"
       style="fill:#666666" />
    <rect
       x="221.03731"
       y="217.28494"
       width="28.631599"
       height="28.633011"
       rx="2.3429599"
       ry="2.3429599"
       fill="#ededed"
       id="rect104-3-7"
       style="fill:#666666" />
    <rect
       x="255.35959"
       y="217.28494"
       width="28.631599"
       height="28.633011"
       rx="2.3429599"
       ry="2.3429599"
       fill="#ededed"
       id="rect106-6-8"
       style="fill:#666666" />
    <rect
       x="290.05475"
       y="319.27237"
       width="28.631599"
       height="28.633011"
       rx="2.3429599"
       ry="2.3429599"
       fill="#ededed"
       id="rect76-3-0-4"
       style="fill:#666666" />
    <rect
       x="325.64633"
       y="319.27237"
       width="28.631599"
       height="28.633011"
       rx="2.3429599"
       ry="2.3429599"
       fill="#ededed"
       id="rect78-6-6-5"
       style="fill:#666666" />
    <rect
       x="360.87088"
       y="319.27237"
       width="28.631599"
       height="28.633011"
       rx="2.3429599"
       ry="2.3429599"
       fill="#ededed"
       id="rect80-7-2-0"
       style="fill:#666666" />
    <rect
       x="395.85309"
       y="319.27237"
       width="28.631599"
       height="28.633011"
       rx="2.3429599"
       ry="2.3429599"
       fill="#ededed"
       id="rect82-5-6-3"
       style="fill:#666666" />
    <rect
       x="290.05475"
       y="285.27655"
       width="28.631599"
       height="28.633011"
       rx="2.3429599"
       ry="2.3429599"
       fill="#ededed"
       id="rect84-3-1-6"
       style="fill:#666666" />
    <rect
       x="325.64633"
       y="285.27655"
       width="28.631599"
       height="28.633011"
       rx="2.3429599"
       ry="2.3429599"
       fill="#ededed"
       id="rect86-5-8-1"
       style="fill:#666666" />
    <rect
       x="360.87088"
       y="285.27655"
       width="28.631599"
       height="28.633011"
       rx="2.3429599"
       ry="2.3429599"
       fill="#ededed"
       id="rect88-6-7-0"
       style="fill:#666666" />
    <rect
       x="395.85309"
       y="285.27655"
       width="28.631599"
       height="28.633011"
       rx="2.3429599"
       ry="2.3429599"
       fill="#ededed"
       id="rect90-2-9-6"
       style="fill:#666666" />
    <rect
       x="290.05475"
       y="251.28073"
       width="28.631599"
       height="28.633011"
       rx="2.3429599"
       ry="2.3429599"
       fill="#ededed"
       id="rect92-9-2-3"
       style="fill:#666666" />
    <rect
       x="325.64633"
       y="251.28073"
       width="28.631599"
       height="28.633011"
       rx="2.3429599"
       ry="2.3429599"
       fill="#ededed"
       id="rect94-1-0-2"
       style="fill:#666666" />
    <rect
       x="360.87088"
       y="251.28073"
       width="28.631599"
       height="28.633011"
       rx="2.3429599"
       ry="2.3429599"
       fill="#ededed"
       id="rect96-2-2-0"
       style="fill:#666666" />
    <rect
       x="395.85309"
       y="251.28073"
       width="28.631599"
       height="28.633011"
       rx="2.3429599"
       ry="2.3429599"
       fill="#ededed"
       id="rect98-7-3-6"
       style="fill:#666666" />
    <rect
       x="290.05475"
       y="217.28494"
       width="28.631599"
       height="28.633011"
       rx="2.3429599"
       ry="2.3429599"
       fill="#ededed"
       id="rect100-0-7-1"
       style="fill:#666666" />
    <rect
       x="325.64633"
       y="217.28494"
       width="28.631599"
       height="28.633011"
       rx="2.3429599"
       ry="2.3429599"
       fill="#ededed"
       id="rect102-9-5-5"
       style="fill:#666666" />
    <rect
       x="360.87088"
       y="217.28494"
       width="28.631599"
       height="28.633011"
       rx="2.3429599"
       ry="2.3429599"
       fill="#ededed"
       id="rect104-3-9-5"
       style="fill:#666666" />
    <rect
       x="395.85309"
       y="217.28494"
       width="28.631599"
       height="28.633011"
       rx="2.3429599"
       ry="2.3429599"
       fill="#ededed"
       id="rect106-6-2-47"
       style="fill:#666666" />
    <rect
       x="430.87024"
       y="319.2724"
       width="28.631599"
       height="28.633011"
       rx="2.3429599"
       ry="2.3429599"
       fill="#ededed"
       id="rect76-3-0-2-6"
       style="fill:#666666" />
    <rect
       x="465.58823"
       y="319.53665"
       width="28.631599"
       height="28.633011"
       rx="2.3429599"
       ry="2.3429599"
       fill="#ededed"
       id="rect78-6-6-8-5"
       style="fill:#666666" />
    <rect
       x="500.82803"
       y="319.2724"
       width="28.631599"
       height="28.633011"
       rx="2.3429599"
       ry="2.3429599"
       fill="#ededed"
       id="rect80-7-2-9-6"
       style="fill:#666666" />
    <rect
       x="535.3205"
       y="319.2724"
       width="28.631599"
       height="28.633011"
       rx="2.3429599"
       ry="2.3429599"
       fill="#ededed"
       id="rect82-5-6-7-9"
       style="fill:#666666" />
    <rect
       x="430.87024"
       y="285.27655"
       width="28.631599"
       height="28.633011"
       rx="2.3429599"
       ry="2.3429599"
       fill="#ededed"
       id="rect84-3-1-3-3"
       style="fill:#666666" />
    <rect
       x="465.58823"
       y="285.5408"
       width="28.631599"
       height="28.633011"
       rx="2.3429599"
       ry="2.3429599"
       fill="#ededed"
       id="rect86-5-8-6-7"
       style="fill:#666666" />
    <rect
       x="500.82803"
       y="285.27655"
       width="28.631599"
       height="28.633011"
       rx="2.3429599"
       ry="2.3429599"
       fill="#ededed"
       id="rect88-6-7-1-4"
       style="fill:#666666" />
    <rect
       x="535.3205"
       y="285.27655"
       width="28.631599"
       height="28.633011"
       rx="2.3429599"
       ry="2.3429599"
       fill="#ededed"
       id="rect90-2-9-2-5"
       style="fill:#666666" />
    <rect
       x="430.87024"
       y="251.28075"
       width="28.631599"
       height="28.633011"
       rx="2.3429599"
       ry="2.3429599"
       fill="#ededed"
       id="rect92-9-2-9-2"
       style="fill:#666666" />
    <rect
       x="465.58823"
       y="251.545"
       width="28.631599"
       height="28.633011"
       rx="2.3429599"
       ry="2.3429599"
       fill="#ededed"
       id="rect94-1-0-3-5"
       style="fill:#666666" />
    <rect
       x="500.82803"
       y="251.28075"
       width="28.631599"
       height="28.633011"
       rx="2.3429599"
       ry="2.3429599"
       fill="#ededed"
       id="rect96-2-2-1-4"
       style="fill:#666666" />
    <rect
       x="535.3205"
       y="251.28075"
       width="28.631599"
       height="28.633011"
       rx="2.3429599"
       ry="2.3429599"
       fill="#ededed"
       id="rect98-7-3-9-7"
       style="fill:#666666" />
    <rect
       x="430.87024"
       y="217.28496"
       width="28.631599"
       height="28.633011"
       rx="2.3429599"
       ry="2.3429599"
       fill="#ededed"
       id="rect100-0-7-4-4"
       style="fill:#666666" />
    <rect
       x="465.85248"
       y="217.54921"
       width="28.631599"
       height="28.633011"
       rx="2.3429599"
       ry="2.3429599"
       fill="#ededed"
       id="rect102-9-5-7-4"
       style="fill:#666666" />
    <rect
       x="500.82803"
       y="217.28496"
       width="28.631599"
       height="28.633011"
       rx="2.3429599"
       ry="2.3429599"
       fill="#ededed"
       id="rect104-3-9-8-3"
       style="fill:#666666" />
    <rect
       x="535.3205"
       y="217.28496"
       width="28.631599"
       height="28.633011"
       rx="2.3429599"
       ry="2.3429599"
       fill="#ededed"
       id="rect106-6-2-4-0"
       style="fill:#666666" />
  </g>
  <g
     aria-label="64"
     transform="matrix(0.97467948,0,0,0.97467939,0.52887159,1.2528062)"
     id="text28100"
     style="font-size:10.9438px;line-height:1.25;fill:#b3b3b3;stroke-width:1.02598">
    <path
       d="m 124.37432,23.435224 q -0.56908,0 -1.01777,-0.207933 -0.43775,-0.218876 -0.71135,-0.54719 -0.26265,-0.328314 -0.43775,-0.777009 -0.1751,-0.448696 -0.24077,-0.875504 -0.0657,-0.426809 -0.0657,-0.875504 0,-1.444582 0.84267,-2.506131 1.10533,-1.357031 2.63746,-1.357031 0.58002,0 0.93022,0.196989 0.3502,0.196988 0.3502,0.514358 0,0.22982 -0.16415,0.393977 -0.16416,0.164157 -0.39398,0.164157 -0.0657,0 -0.31737,-0.06566 -0.24076,-0.07661 -0.33926,-0.07661 -0.86456,0 -1.55402,0.656628 -0.67851,0.645684 -0.86456,1.652513 0.39398,-0.415864 0.73324,-0.590965 0.3502,-0.175101 0.76606,-0.175101 0.86456,0 1.46647,0.656628 0.61286,0.656628 0.61286,1.586851 0,0.995886 -0.59097,1.619683 -0.59096,0.612853 -1.64157,0.612853 z m -1.23665,-2.451412 q 0.12038,0.711347 0.42681,1.039661 0.30643,0.317371 0.84267,0.317371 0.51436,0 0.80984,-0.306427 0.29549,-0.306426 0.29549,-0.842672 0,-0.470584 -0.30643,-0.798898 -0.30643,-0.339258 -0.75512,-0.339258 -0.3502,0 -0.72229,0.262652 -0.37209,0.262651 -0.59097,0.667571 z"
       style="font-weight:bold;font-family:FreeMono;-inkscape-font-specification:'FreeMono Bold';fill:#b3b3b3"
       id="path910-7" />
    <path
       d="m 130.69982,23.271067 q -0.72229,0 -0.72229,-0.54719 0,-0.54719 0.72229,-0.54719 h 0.41586 v -0.415865 h -2.97671 v -0.908335 l 2.63746,-4.388464 h 1.43363 v 4.202419 q 0.66758,0 0.66758,0.54719 0,0.525303 -0.66758,0.54719 v 0.415865 q 0.66758,0 0.66758,0.54719 0,0.54719 -0.73324,0.54719 z m 0.41586,-2.604625 v -2.648399 l -1.64157,2.648399 z"
       style="font-weight:bold;font-family:FreeMono;-inkscape-font-specification:'FreeMono Bold';fill:#b3b3b3"
       id="path912-8" />
  </g>
</svg>
