<?xml version="1.0" encoding="UTF-8" standalone="no"?>
<svg
   width="570"
   height="379.99997"
   viewBox="0 0 570 380"
   version="1.1"
   id="svg72"
   xmlns:xlink="http://www.w3.org/1999/xlink"
   xmlns="http://www.w3.org/2000/svg"
   xmlns:svg="http://www.w3.org/2000/svg">
  <defs
     id="defs7">
    <linearGradient
       id="uuid-17477a25-53f1-43a0-99f1-583307600d51"
       x1="165"
       y1="380"
       x2="165"
       y2="1"
       gradientUnits="userSpaceOnUse"
       gradientTransform="matrix(1 0 0 -1 0 381.27557)">
      <stop  offset="0" style="stop-color:#EBEBEB"/>
      <stop  offset="1" style="stop-color:#E1E1E1"/>
    </linearGradient>
    <clipPath
       clipPathUnits="userSpaceOnUse"
       id="clipPath20816">
      <use
         x="0"
         y="0"
         xlink:href="#g20812"
         id="use20818" />
    </clipPath>
  </defs>
  <g
     id="uuid-59b7b1a8-30db-41ce-8c27-06ef1a2453cd"
     data-name="FND BG"
     transform="scale(0.95,1)"
     style="fill:#f2f2f2">
    <rect
       width="600"
       height="380"
       fill="url(#uuid-17477a25-53f1-43a0-99f1-583307600d51)"
       id="rect9"
       x="0"
       y="0"
       style="stroke-width:2" />
    <g
       id="g20814"
       clip-path="url(#clipPath20816)"
       transform="translate(-165.92356,6.9738685)">
      <g
         id="g20812">
        <g
           aria-label="MIDI CC   CV"
           transform="scale(1.0259784,0.97467939)"
           id="text2404"
           style="font-size:15.0477px;line-height:1.25;fill:#000000;stroke-width:1.02598">
          <path
             d="m 198.3973,11.896884 3.08596,8.199821 3.0786,-8.199821 h 2.40264 v 10.697974 h -1.85157 v -3.526805 l 0.18368,-4.717101 -3.15943,8.243906 h -1.3299 l -3.15208,-8.236558 0.18369,4.709753 v 3.526805 h -1.85157 V 11.896884 Z"
             style="font-weight:500;font-family:Roboto;-inkscape-font-specification:'Roboto Medium';fill:#333333"
             id="path933" />
          <path
             d="m 211.12319,22.594858 h -1.85157 V 11.896884 h 1.85157 z"
             style="font-weight:500;font-family:Roboto;-inkscape-font-specification:'Roboto Medium';fill:#333333"
             id="path935" />
          <path
             d="M 213.40826,22.594858 V 11.896884 h 3.15943 q 1.41807,0 2.51285,0.631886 1.10213,0.631886 1.70462,1.792792 0.6025,1.160907 0.6025,2.659799 v 0.536368 q 0,1.520934 -0.60985,2.674493 -0.60249,1.15356 -1.72666,1.778098 -1.11682,0.624538 -2.56428,0.624538 z m 1.85892,-9.199082 v 7.714885 h 1.21234 q 1.46216,0 2.24099,-0.911091 0.78619,-0.918439 0.80088,-2.630408 v -0.595149 q 0,-1.74136 -0.75679,-2.659798 -0.7568,-0.918439 -2.19691,-0.918439 z"
             style="font-weight:500;font-family:Roboto;-inkscape-font-specification:'Roboto Medium';fill:#333333"
             id="path937" />
          <path
             d="m 225.20102,22.594858 h -1.85158 V 11.896884 h 1.85158 z"
             style="font-weight:500;font-family:Roboto;-inkscape-font-specification:'Roboto Medium';fill:#333333"
             id="path939" />
          <path
             d="m 239.3964,19.112139 q -0.16164,1.711969 -1.26377,2.674493 -1.10212,0.955176 -2.93165,0.955176 -1.27847,0 -2.25569,-0.602495 -0.96987,-0.609844 -1.49889,-1.726665 -0.52902,-1.116822 -0.55106,-2.593671 v -0.999261 q 0,-1.513587 0.53636,-2.667147 0.53637,-1.153559 1.53563,-1.778097 1.00661,-0.624538 2.32182,-0.624538 1.77075,0 2.85083,0.962524 1.08008,0.962523 1.25642,2.718578 h -1.85157 q -0.13225,-1.153559 -0.67597,-1.660537 -0.53637,-0.514326 -1.57971,-0.514326 -1.21234,0 -1.86627,0.889049 -0.64658,0.881701 -0.66128,2.593671 v 0.947829 q 0,1.734012 0.61719,2.645103 0.62454,0.911091 1.82219,0.911091 1.09477,0 1.64584,-0.492283 0.55106,-0.492283 0.69801,-1.638494 z"
             style="font-weight:500;font-family:Roboto;-inkscape-font-specification:'Roboto Medium';fill:#333333"
             id="path941" />
          <path
             d="m 249.22003,19.112139 q -0.16165,1.711969 -1.26377,2.674493 -1.10213,0.955176 -2.93166,0.955176 -1.27847,0 -2.25569,-0.602495 -0.96987,-0.609844 -1.49889,-1.726665 -0.52902,-1.116822 -0.55106,-2.593671 v -0.999261 q 0,-1.513587 0.53637,-2.667147 0.53637,-1.153559 1.53563,-1.778097 1.00661,-0.624538 2.32181,-0.624538 1.77075,0 2.85083,0.962524 1.08009,0.962523 1.25643,2.718578 h -1.85157 q -0.13226,-1.153559 -0.67598,-1.660537 -0.53636,-0.514326 -1.57971,-0.514326 -1.21234,0 -1.86627,0.889049 -0.64658,0.881701 -0.66127,2.593671 v 0.947829 q 0,1.734012 0.61719,2.645103 0.62454,0.911091 1.82218,0.911091 1.09478,0 1.64584,-0.492283 0.55107,-0.492283 0.69802,-1.638494 z"
             style="font-weight:500;font-family:Roboto;-inkscape-font-specification:'Roboto Medium';fill:#333333"
             id="path943" />
          <path
             d="m 270.28534,19.112139 q -0.16165,1.711969 -1.26378,2.674493 -1.10212,0.955176 -2.93165,0.955176 -1.27847,0 -2.25569,-0.602495 -0.96987,-0.609844 -1.49889,-1.726665 -0.52902,-1.116822 -0.55106,-2.593671 v -0.999261 q 0,-1.513587 0.53636,-2.667147 0.53637,-1.153559 1.53563,-1.778097 1.00661,-0.624538 2.32182,-0.624538 1.77075,0 2.85083,0.962524 1.08009,0.962523 1.25643,2.718578 h -1.85158 q -0.13225,-1.153559 -0.67597,-1.660537 -0.53637,-0.514326 -1.57971,-0.514326 -1.21234,0 -1.86627,0.889049 -0.64658,0.881701 -0.66128,2.593671 v 0.947829 q 0,1.734012 0.61719,2.645103 0.62454,0.911091 1.82219,0.911091 1.09478,0 1.64584,-0.492283 0.55106,-0.492283 0.69801,-1.638494 z"
             style="font-weight:500;font-family:Roboto;-inkscape-font-specification:'Roboto Medium';fill:#333333"
             id="path945" />
          <path
             d="m 275.71515,20.265698 2.71858,-8.368814 h 2.0426 l -3.85009,10.697974 h -1.80014 l -3.8354,-10.697974 h 2.03526 z"
             style="font-weight:500;font-family:Roboto;-inkscape-font-specification:'Roboto Medium';fill:#333333"
             id="path947" />
        </g>
      </g>
    </g>
    <g
       aria-label="64"
       transform="scale(1.0259784,0.97467939)"
       id="text28100"
       style="font-size:10.9438px;line-height:1.25;fill:#000000;stroke-width:1.02598">
      <path
         d="m 124.37432,23.435224 q -0.56908,0 -1.01777,-0.207933 -0.43775,-0.218876 -0.71135,-0.54719 -0.26265,-0.328314 -0.43775,-0.777009 -0.1751,-0.448696 -0.24077,-0.875504 -0.0657,-0.426809 -0.0657,-0.875504 0,-1.444582 0.84267,-2.506131 1.10533,-1.357031 2.63746,-1.357031 0.58002,0 0.93022,0.196989 0.3502,0.196988 0.3502,0.514358 0,0.22982 -0.16415,0.393977 -0.16416,0.164157 -0.39398,0.164157 -0.0657,0 -0.31737,-0.06566 -0.24076,-0.07661 -0.33926,-0.07661 -0.86456,0 -1.55402,0.656628 -0.67851,0.645684 -0.86456,1.652513 0.39398,-0.415864 0.73324,-0.590965 0.3502,-0.175101 0.76606,-0.175101 0.86456,0 1.46647,0.656628 0.61286,0.656628 0.61286,1.586851 0,0.995886 -0.59097,1.619683 -0.59096,0.612853 -1.64157,0.612853 z m -1.23665,-2.451412 q 0.12038,0.711347 0.42681,1.039661 0.30643,0.317371 0.84267,0.317371 0.51436,0 0.80984,-0.306427 0.29549,-0.306426 0.29549,-0.842672 0,-0.470584 -0.30643,-0.798898 -0.30643,-0.339258 -0.75512,-0.339258 -0.3502,0 -0.72229,0.262652 -0.37209,0.262651 -0.59097,0.667571 z"
         style="font-weight:bold;font-family:FreeMono;-inkscape-font-specification:'FreeMono Bold'"
         id="path910" />
      <path
         d="m 130.69982,23.271067 q -0.72229,0 -0.72229,-0.54719 0,-0.54719 0.72229,-0.54719 h 0.41586 v -0.415865 h -2.97671 v -0.908335 l 2.63746,-4.388464 h 1.43363 v 4.202419 q 0.66758,0 0.66758,0.54719 0,0.525303 -0.66758,0.54719 v 0.415865 q 0.66758,0 0.66758,0.54719 0,0.54719 -0.73324,0.54719 z m 0.41586,-2.604625 v -2.648399 l -1.64157,2.648399 z"
         style="font-weight:bold;font-family:FreeMono;-inkscape-font-specification:'FreeMono Bold'"
         id="path912" />
    </g>
  </g>
  <g
     id="uuid-9b2158ee-1b2f-4aa1-b860-e61fe22e1b94"
     data-name="FND GRAPH">
    <rect
       x="9.8654299"
       y="319.27237"
       width="28.631599"
       height="28.633011"
       rx="2.3429599"
       ry="2.3429599"
       fill="#ededed"
       id="rect18" />
    <rect
       x="43.968811"
       y="319.27237"
       width="28.631599"
       height="28.633011"
       rx="2.3429599"
       ry="2.3429599"
       fill="#ededed"
       id="rect20" />
    <rect
       x="80.143494"
       y="319.27237"
       width="28.631599"
       height="28.633011"
       rx="2.3429599"
       ry="2.3429599"
       fill="#ededed"
       id="rect22"
       style="fill:#1a1a1a" />
    <rect
       x="115.19313"
       y="319.27237"
       width="28.631599"
       height="28.633011"
       rx="2.3429599"
       ry="2.3429599"
       fill="#ededed"
       id="rect24"
       style="fill:#1a1a1a" />
    <rect
       x="9.8654299"
       y="285.27655"
       width="28.631599"
       height="28.633011"
       rx="2.3429599"
       ry="2.3429599"
       fill="#ededed"
       id="rect26" />
    <rect
       x="43.968811"
       y="285.27655"
       width="28.631599"
       height="28.633011"
       rx="2.3429599"
       ry="2.3429599"
       fill="#ededed"
       id="rect28" />
    <rect
       x="80.143494"
       y="285.27655"
       width="28.631599"
       height="28.633011"
       rx="2.3429599"
       ry="2.3429599"
       fill="#ededed"
       id="rect30"
       style="fill:#1a1a1a" />
    <rect
       x="115.19313"
       y="285.27655"
       width="28.631599"
       height="28.633011"
       rx="2.3429599"
       ry="2.3429599"
       fill="#ededed"
       id="rect32"
       style="fill:#1a1a1a" />
    <rect
       x="9.8654299"
       y="251.28075"
       width="28.631599"
       height="28.633011"
       rx="2.3429599"
       ry="2.3429599"
       fill="#ededed"
       id="rect34" />
    <rect
       x="43.968811"
       y="251.28075"
       width="28.631599"
       height="28.633011"
       rx="2.3429599"
       ry="2.3429599"
       fill="#ededed"
       id="rect36" />
    <rect
       x="80.143494"
       y="251.28075"
       width="28.631599"
       height="28.633011"
       rx="2.3429599"
       ry="2.3429599"
       fill="#ededed"
       id="rect38"
       style="fill:#1a1a1a" />
    <rect
       x="115.19313"
       y="251.28075"
       width="28.631599"
       height="28.633011"
       rx="2.3429599"
       ry="2.3429599"
       fill="#ededed"
       id="rect40"
       style="fill:#1a1a1a" />
    <rect
       x="9.8654299"
       y="217.28494"
       width="28.631599"
       height="28.633011"
       rx="2.3429599"
       ry="2.3429599"
       fill="#ededed"
       id="rect42" />
    <rect
       x="43.968811"
       y="217.28494"
       width="28.631599"
       height="28.633011"
       rx="2.3429599"
       ry="2.3429599"
       fill="#ededed"
       id="rect44" />
    <rect
       x="80.143494"
       y="217.28494"
       width="28.631599"
       height="28.633011"
       rx="2.3429599"
       ry="2.3429599"
       fill="#ededed"
       id="rect46"
       style="fill:#1a1a1a" />
    <rect
       x="115.19313"
       y="217.28494"
       width="28.631599"
       height="28.633011"
       rx="2.3429599"
       ry="2.3429599"
       fill="#ededed"
       id="rect48"
       style="fill:#1a1a1a" />
    <path
       d="m 93.70699,23.95614 -2.87167,-1.65796 c -0.24791,-0.14313 -0.55779,0.03578 -0.55779,0.32204 v 3.31592 c 0,0.28626 0.30989,0.46517 0.55779,0.32204 l 2.87167,-1.65796 c 0.24791,-0.14313 0.24791,-0.50096 0,-0.64409 z"
       fill="#ededed"
       id="path50"
       style="fill:#333333" />
    <rect
       x="9.8654299"
       y="319.27237"
       width="28.631599"
       height="28.633011"
       rx="2.3429599"
       ry="2.3429599"
       fill="#ededed"
       id="rect76"
       style="fill:#1a1a1a" />
    <rect
       x="45.374844"
       y="319.27237"
       width="28.631599"
       height="28.633011"
       rx="2.3429599"
       ry="2.3429599"
       fill="#ededed"
       id="rect78"
       style="fill:#1a1a1a" />
    <rect
       x="9.8654299"
       y="285.27655"
       width="28.631599"
       height="28.633011"
       rx="2.3429599"
       ry="2.3429599"
       fill="#ededed"
       id="rect84"
       style="fill:#1a1a1a" />
    <rect
       x="45.374844"
       y="285.27655"
       width="28.631599"
       height="28.633011"
       rx="2.3429599"
       ry="2.3429599"
       fill="#ededed"
       id="rect86"
       style="fill:#1a1a1a" />
    <rect
       x="9.8654299"
       y="251.28075"
       width="28.631599"
       height="28.633011"
       rx="2.3429599"
       ry="2.3429599"
       fill="#ededed"
       id="rect92"
       style="fill:#1a1a1a" />
    <rect
       x="45.374844"
       y="251.28075"
       width="28.631599"
       height="28.633011"
       rx="2.3429599"
       ry="2.3429599"
       fill="#ededed"
       id="rect94"
       style="fill:#1a1a1a" />
    <rect
       x="9.8654299"
       y="217.28494"
       width="28.631599"
       height="28.633011"
       rx="2.3429599"
       ry="2.3429599"
       fill="#ededed"
       id="rect100"
       style="fill:#1a1a1a" />
    <rect
       x="45.374844"
       y="217.28494"
       width="28.631599"
       height="28.633011"
       rx="2.3429599"
       ry="2.3429599"
       fill="#ededed"
       id="rect102"
       style="fill:#1a1a1a" />
    <rect
       x="149.89355"
       y="319.27237"
       width="28.631599"
       height="28.633011"
       rx="2.3429599"
       ry="2.3429599"
       fill="#ededed"
       id="rect76-3"
       style="fill:#1a1a1a" />
    <rect
       x="185.32368"
       y="319.27237"
       width="28.631599"
       height="28.633011"
       rx="2.3429599"
       ry="2.3429599"
       fill="#ededed"
       id="rect78-6"
       style="fill:#1a1a1a" />
    <rect
       x="220.50879"
       y="319.27237"
       width="28.631599"
       height="28.633011"
       rx="2.3429599"
       ry="2.3429599"
       fill="#ededed"
       id="rect80-7"
       style="fill:#1a1a1a" />
    <rect
       x="255.35959"
       y="319.27237"
       width="28.631599"
       height="28.633011"
       rx="2.3429599"
       ry="2.3429599"
       fill="#ededed"
       id="rect82-5"
       style="fill:#1a1a1a" />
    <rect
       x="149.89355"
       y="285.27655"
       width="28.631599"
       height="28.633011"
       rx="2.3429599"
       ry="2.3429599"
       fill="#ededed"
       id="rect84-3"
       style="fill:#1a1a1a" />
    <rect
       x="185.32368"
       y="285.27655"
       width="28.631599"
       height="28.633011"
       rx="2.3429599"
       ry="2.3429599"
       fill="#ededed"
       id="rect86-5"
       style="fill:#1a1a1a" />
    <rect
       x="220.50879"
       y="285.27655"
       width="28.631599"
       height="28.633011"
       rx="2.3429599"
       ry="2.3429599"
       fill="#ededed"
       id="rect88-6"
       style="fill:#1a1a1a" />
    <rect
       x="255.35959"
       y="285.27655"
       width="28.631599"
       height="28.633011"
       rx="2.3429599"
       ry="2.3429599"
       fill="#ededed"
       id="rect90-2"
       style="fill:#1a1a1a" />
    <rect
       x="149.89355"
       y="251.28075"
       width="28.631599"
       height="28.633011"
       rx="2.3429599"
       ry="2.3429599"
       fill="#ededed"
       id="rect92-9"
       style="fill:#1a1a1a" />
    <rect
       x="185.32368"
       y="251.28075"
       width="28.631599"
       height="28.633011"
       rx="2.3429599"
       ry="2.3429599"
       fill="#ededed"
       id="rect94-1"
       style="fill:#1a1a1a" />
    <rect
       x="220.50879"
       y="251.28075"
       width="28.631599"
       height="28.633011"
       rx="2.3429599"
       ry="2.3429599"
       fill="#ededed"
       id="rect96-2"
       style="fill:#1a1a1a" />
    <rect
       x="255.35959"
       y="251.28075"
       width="28.631599"
       height="28.633011"
       rx="2.3429599"
       ry="2.3429599"
       fill="#ededed"
       id="rect98-7"
       style="fill:#1a1a1a" />
    <rect
       x="149.89355"
       y="217.28494"
       width="28.631599"
       height="28.633011"
       rx="2.3429599"
       ry="2.3429599"
       fill="#ededed"
       id="rect100-0"
       style="fill:#1a1a1a" />
    <rect
       x="185.32368"
       y="217.28494"
       width="28.631599"
       height="28.633011"
       rx="2.3429599"
       ry="2.3429599"
       fill="#ededed"
       id="rect102-9"
       style="fill:#1a1a1a" />
    <rect
       x="220.50879"
       y="217.28494"
       width="28.631599"
       height="28.633011"
       rx="2.3429599"
       ry="2.3429599"
       fill="#ededed"
       id="rect104-3"
       style="fill:#1a1a1a" />
    <rect
       x="255.35959"
       y="217.28494"
       width="28.631599"
       height="28.633011"
       rx="2.3429599"
       ry="2.3429599"
       fill="#ededed"
       id="rect106-6"
       style="fill:#1a1a1a" />
    <rect
       x="290.05475"
       y="319.27237"
       width="28.631599"
       height="28.633011"
       rx="2.3429599"
       ry="2.3429599"
       fill="#ededed"
       id="rect76-3-0"
       style="fill:#1a1a1a" />
    <rect
       x="325.64633"
       y="319.27237"
       width="28.631599"
       height="28.633011"
       rx="2.3429599"
       ry="2.3429599"
       fill="#ededed"
       id="rect78-6-6"
       style="fill:#1a1a1a" />
    <rect
       x="360.87088"
       y="319.27237"
       width="28.631599"
       height="28.633011"
       rx="2.3429599"
       ry="2.3429599"
       fill="#ededed"
       id="rect80-7-2"
       style="fill:#1a1a1a" />
    <rect
       x="395.85309"
       y="319.27237"
       width="28.631599"
       height="28.633011"
       rx="2.3429599"
       ry="2.3429599"
       fill="#ededed"
       id="rect82-5-6"
       style="fill:#1a1a1a" />
    <rect
       x="290.05475"
       y="285.27655"
       width="28.631599"
       height="28.633011"
       rx="2.3429599"
       ry="2.3429599"
       fill="#ededed"
       id="rect84-3-1"
       style="fill:#1a1a1a" />
    <rect
       x="325.64633"
       y="285.27655"
       width="28.631599"
       height="28.633011"
       rx="2.3429599"
       ry="2.3429599"
       fill="#ededed"
       id="rect86-5-8"
       style="fill:#1a1a1a" />
    <rect
       x="360.87088"
       y="285.27655"
       width="28.631599"
       height="28.633011"
       rx="2.3429599"
       ry="2.3429599"
       fill="#ededed"
       id="rect88-6-7"
       style="fill:#1a1a1a" />
    <rect
       x="395.85309"
       y="285.27655"
       width="28.631599"
       height="28.633011"
       rx="2.3429599"
       ry="2.3429599"
       fill="#ededed"
       id="rect90-2-9"
       style="fill:#1a1a1a" />
    <rect
       x="290.05475"
       y="251.28073"
       width="28.631599"
       height="28.633011"
       rx="2.3429599"
       ry="2.3429599"
       fill="#ededed"
       id="rect92-9-2"
       style="fill:#1a1a1a" />
    <rect
       x="325.64633"
       y="251.28073"
       width="28.631599"
       height="28.633011"
       rx="2.3429599"
       ry="2.3429599"
       fill="#ededed"
       id="rect94-1-0"
       style="fill:#1a1a1a" />
    <rect
       x="360.87088"
       y="251.28073"
       width="28.631599"
       height="28.633011"
       rx="2.3429599"
       ry="2.3429599"
       fill="#ededed"
       id="rect96-2-2"
       style="fill:#1a1a1a" />
    <rect
       x="395.85309"
       y="251.28073"
       width="28.631599"
       height="28.633011"
       rx="2.3429599"
       ry="2.3429599"
       fill="#ededed"
       id="rect98-7-3"
       style="fill:#1a1a1a" />
    <rect
       x="290.05475"
       y="217.28494"
       width="28.631599"
       height="28.633011"
       rx="2.3429599"
       ry="2.3429599"
       fill="#ededed"
       id="rect100-0-7"
       style="fill:#1a1a1a" />
    <rect
       x="325.64633"
       y="217.28494"
       width="28.631599"
       height="28.633011"
       rx="2.3429599"
       ry="2.3429599"
       fill="#ededed"
       id="rect102-9-5"
       style="fill:#1a1a1a" />
    <rect
       x="360.87088"
       y="217.28494"
       width="28.631599"
       height="28.633011"
       rx="2.3429599"
       ry="2.3429599"
       fill="#ededed"
       id="rect104-3-9"
       style="fill:#1a1a1a" />
    <rect
       x="395.85309"
       y="217.28494"
       width="28.631599"
       height="28.633011"
       rx="2.3429599"
       ry="2.3429599"
       fill="#ededed"
       id="rect106-6-2"
       style="fill:#1a1a1a" />
    <rect
       x="430.34174"
       y="319.2724"
       width="28.631599"
       height="28.633011"
       rx="2.3429599"
       ry="2.3429599"
       fill="#ededed"
       id="rect76-3-0-2"
       style="fill:#1a1a1a" />
    <rect
       x="465.58823"
       y="319.53665"
       width="28.631599"
       height="28.633011"
       rx="2.3429599"
       ry="2.3429599"
       fill="#ededed"
       id="rect78-6-6-8"
       style="fill:#1a1a1a" />
    <rect
       x="500.29953"
       y="319.2724"
       width="28.631599"
       height="28.633011"
       rx="2.3429599"
       ry="2.3429599"
       fill="#ededed"
       id="rect80-7-2-9"
       style="fill:#1a1a1a" />
    <rect
       x="535.3205"
       y="319.2724"
       width="28.631599"
       height="28.633011"
       rx="2.3429599"
       ry="2.3429599"
       fill="#ededed"
       id="rect82-5-6-7"
       style="fill:#1a1a1a" />
    <rect
       x="430.34174"
       y="285.27655"
       width="28.631599"
       height="28.633011"
       rx="2.3429599"
       ry="2.3429599"
       fill="#ededed"
       id="rect84-3-1-3"
       style="fill:#1a1a1a" />
    <rect
       x="465.58823"
       y="285.5408"
       width="28.631599"
       height="28.633011"
       rx="2.3429599"
       ry="2.3429599"
       fill="#ededed"
       id="rect86-5-8-6"
       style="fill:#1a1a1a" />
    <rect
       x="500.29953"
       y="285.27655"
       width="28.631599"
       height="28.633011"
       rx="2.3429599"
       ry="2.3429599"
       fill="#ededed"
       id="rect88-6-7-1"
       style="fill:#1a1a1a" />
    <rect
       x="535.3205"
       y="285.27655"
       width="28.631599"
       height="28.633011"
       rx="2.3429599"
       ry="2.3429599"
       fill="#ededed"
       id="rect90-2-9-2"
       style="fill:#1a1a1a" />
    <rect
       x="430.34174"
       y="251.28075"
       width="28.631599"
       height="28.633011"
       rx="2.3429599"
       ry="2.3429599"
       fill="#ededed"
       id="rect92-9-2-9"
       style="fill:#1a1a1a" />
    <rect
       x="465.58823"
       y="251.545"
       width="28.631599"
       height="28.633011"
       rx="2.3429599"
       ry="2.3429599"
       fill="#ededed"
       id="rect94-1-0-3"
       style="fill:#1a1a1a" />
    <rect
       x="500.29953"
       y="251.28075"
       width="28.631599"
       height="28.633011"
       rx="2.3429599"
       ry="2.3429599"
       fill="#ededed"
       id="rect96-2-2-1"
       style="fill:#1a1a1a" />
    <rect
       x="535.3205"
       y="251.28075"
       width="28.631599"
       height="28.633011"
       rx="2.3429599"
       ry="2.3429599"
       fill="#ededed"
       id="rect98-7-3-9"
       style="fill:#1a1a1a" />
    <rect
       x="430.34174"
       y="217.28496"
       width="28.631599"
       height="28.633011"
       rx="2.3429599"
       ry="2.3429599"
       fill="#ededed"
       id="rect100-0-7-4"
       style="fill:#1a1a1a" />
    <rect
       x="465.85248"
       y="217.54921"
       width="28.631599"
       height="28.633011"
       rx="2.3429599"
       ry="2.3429599"
       fill="#ededed"
       id="rect102-9-5-7"
       style="fill:#1a1a1a" />
    <rect
       x="500.29953"
       y="217.28496"
       width="28.631599"
       height="28.633011"
       rx="2.3429599"
       ry="2.3429599"
       fill="#ededed"
       id="rect104-3-9-8"
       style="fill:#1a1a1a" />
    <rect
       x="535.3205"
       y="217.28496"
       width="28.631599"
       height="28.633011"
       rx="2.3429599"
       ry="2.3429599"
       fill="#ededed"
       id="rect106-6-2-4"
       style="fill:#1a1a1a" />
  </g>
</svg>
