<?xml version="1.0" encoding="UTF-8" standalone="no"?>
<svg
   width="570"
   height="379.99997"
   viewBox="0 0 570 380"
   version="1.1"
   id="svg72"
   xmlns="http://www.w3.org/2000/svg"
   xmlns:svg="http://www.w3.org/2000/svg">
  <defs
     id="defs7">
    <linearGradient
       id="uuid-17477a25-53f1-43a0-99f1-583307600d51"
       x1="165"
       y1="380"
       x2="165"
       y2="1"
       gradientUnits="userSpaceOnUse"
       gradientTransform="matrix(1 0 0 -1 0 381.27557)">
      <stop
         offset="0"
         style="stop-color:#EBEBEB"
         id="stop2" />
      <stop
         offset="1"
         style="stop-color:#E1E1E1"
         id="stop4" />
    </linearGradient>
    <clipPath
       clipPathUnits="userSpaceOnUse"
       id="clipPath20816">
      <g
         id="use20818">
        <g
           aria-label="MIDI CC   CV"
           transform="scale(1.0259784,0.97467939)"
           id="g47658"
           style="font-size:15.0477px;line-height:1.25;fill:#000000;stroke-width:1.02598">
          <g
             id="g47644">
            <path
               d="m 198.3973,11.896884 3.08596,8.199821 3.0786,-8.199821 h 2.40264 v 10.697974 h -1.85157 v -3.526805 l 0.18368,-4.717101 -3.15943,8.243906 h -1.3299 l -3.15208,-8.236558 0.18369,4.709753 v 3.526805 h -1.85157 V 11.896884 Z"
               style="font-weight:500;font-family:Roboto;-inkscape-font-specification:'Roboto Medium';fill:#333333"
               id="path47636" />
            <path
               d="m 211.12319,22.594858 h -1.85157 V 11.896884 h 1.85157 z"
               style="font-weight:500;font-family:Roboto;-inkscape-font-specification:'Roboto Medium';fill:#333333"
               id="path47638" />
            <path
               d="M 213.40826,22.594858 V 11.896884 h 3.15943 q 1.41807,0 2.51285,0.631886 1.10213,0.631886 1.70462,1.792792 0.6025,1.160907 0.6025,2.659799 v 0.536368 q 0,1.520934 -0.60985,2.674493 -0.60249,1.15356 -1.72666,1.778098 -1.11682,0.624538 -2.56428,0.624538 z m 1.85892,-9.199082 v 7.714885 h 1.21234 q 1.46216,0 2.24099,-0.911091 0.78619,-0.918439 0.80088,-2.630408 v -0.595149 q 0,-1.74136 -0.75679,-2.659798 -0.7568,-0.918439 -2.19691,-0.918439 z"
               style="font-weight:500;font-family:Roboto;-inkscape-font-specification:'Roboto Medium';fill:#333333"
               id="path47640" />
            <path
               d="m 225.20102,22.594858 h -1.85158 V 11.896884 h 1.85158 z"
               style="font-weight:500;font-family:Roboto;-inkscape-font-specification:'Roboto Medium';fill:#333333"
               id="path47642" />
          </g>
          <g
             id="g47650"
             transform="translate(30.779353,-0.06778021)">
            <path
               d="m 239.3964,19.112139 q -0.16164,1.711969 -1.26377,2.674493 -1.10212,0.955176 -2.93165,0.955176 -1.27847,0 -2.25569,-0.602495 -0.96987,-0.609844 -1.49889,-1.726665 -0.52902,-1.116822 -0.55106,-2.593671 v -0.999261 q 0,-1.513587 0.53636,-2.667147 0.53637,-1.153559 1.53563,-1.778097 1.00661,-0.624538 2.32182,-0.624538 1.77075,0 2.85083,0.962524 1.08008,0.962523 1.25642,2.718578 h -1.85157 q -0.13225,-1.153559 -0.67597,-1.660537 -0.53637,-0.514326 -1.57971,-0.514326 -1.21234,0 -1.86627,0.889049 -0.64658,0.881701 -0.66128,2.593671 v 0.947829 q 0,1.734012 0.61719,2.645103 0.62454,0.911091 1.82219,0.911091 1.09477,0 1.64584,-0.492283 0.55106,-0.492283 0.69801,-1.638494 z"
               style="font-weight:500;font-family:Roboto;-inkscape-font-specification:'Roboto Medium';fill:#333333"
               id="path47646" />
            <path
               d="m 249.22003,19.112139 q -0.16165,1.711969 -1.26377,2.674493 -1.10213,0.955176 -2.93166,0.955176 -1.27847,0 -2.25569,-0.602495 -0.96987,-0.609844 -1.49889,-1.726665 -0.52902,-1.116822 -0.55106,-2.593671 v -0.999261 q 0,-1.513587 0.53637,-2.667147 0.53637,-1.153559 1.53563,-1.778097 1.00661,-0.624538 2.32181,-0.624538 1.77075,0 2.85083,0.962524 1.08009,0.962523 1.25643,2.718578 h -1.85157 q -0.13226,-1.153559 -0.67598,-1.660537 -0.53636,-0.514326 -1.57971,-0.514326 -1.21234,0 -1.86627,0.889049 -0.64658,0.881701 -0.66127,2.593671 v 0.947829 q 0,1.734012 0.61719,2.645103 0.62454,0.911091 1.82218,0.911091 1.09478,0 1.64584,-0.492283 0.55107,-0.492283 0.69802,-1.638494 z"
               style="font-weight:500;font-family:Roboto;-inkscape-font-specification:'Roboto Medium';fill:#333333"
               id="path47648" />
          </g>
          <g
             id="g47656"
             transform="translate(-30.779353)">
            <path
               d="m 270.28534,19.112139 q -0.16165,1.711969 -1.26378,2.674493 -1.10212,0.955176 -2.93165,0.955176 -1.27847,0 -2.25569,-0.602495 -0.96987,-0.609844 -1.49889,-1.726665 -0.52902,-1.116822 -0.55106,-2.593671 v -0.999261 q 0,-1.513587 0.53636,-2.667147 0.53637,-1.153559 1.53563,-1.778097 1.00661,-0.624538 2.32182,-0.624538 1.77075,0 2.85083,0.962524 1.08009,0.962523 1.25643,2.718578 h -1.85158 q -0.13225,-1.153559 -0.67597,-1.660537 -0.53637,-0.514326 -1.57971,-0.514326 -1.21234,0 -1.86627,0.889049 -0.64658,0.881701 -0.66128,2.593671 v 0.947829 q 0,1.734012 0.61719,2.645103 0.62454,0.911091 1.82219,0.911091 1.09478,0 1.64584,-0.492283 0.55106,-0.492283 0.69801,-1.638494 z"
               style="font-weight:500;font-family:Roboto;-inkscape-font-specification:'Roboto Medium';fill:#333333"
               id="path47652" />
            <path
               d="m 275.71515,20.265698 2.71858,-8.368814 h 2.0426 l -3.85009,10.697974 h -1.80014 l -3.8354,-10.697974 h 2.03526 z"
               style="font-weight:500;font-family:Roboto;-inkscape-font-specification:'Roboto Medium';fill:#333333"
               id="path47654" />
          </g>
        </g>
      </g>
    </clipPath>
  </defs>
  <g
     id="uuid-59b7b1a8-30db-41ce-8c27-06ef1a2453cd"
     data-name="FND BG"
     transform="scale(0.95,1)"
     style="fill:#f2f2f2">
    <rect
       width="600"
       height="380"
       fill="url(#uuid-17477a25-53f1-43a0-99f1-583307600d51)"
       id="rect9"
       x="0"
       y="0"
       style="stroke-width:2" />
    <g
       aria-label="64"
       transform="scale(1.0259784,0.97467939)"
       id="text28100"
       style="font-size:10.9438px;line-height:1.25;fill:#333333;stroke-width:1.02598">
      <path
         d="m 124.37432,23.435224 q -0.56908,0 -1.01777,-0.207933 -0.43775,-0.218876 -0.71135,-0.54719 -0.26265,-0.328314 -0.43775,-0.777009 -0.1751,-0.448696 -0.24077,-0.875504 -0.0657,-0.426809 -0.0657,-0.875504 0,-1.444582 0.84267,-2.506131 1.10533,-1.357031 2.63746,-1.357031 0.58002,0 0.93022,0.196989 0.3502,0.196988 0.3502,0.514358 0,0.22982 -0.16415,0.393977 -0.16416,0.164157 -0.39398,0.164157 -0.0657,0 -0.31737,-0.06566 -0.24076,-0.07661 -0.33926,-0.07661 -0.86456,0 -1.55402,0.656628 -0.67851,0.645684 -0.86456,1.652513 0.39398,-0.415864 0.73324,-0.590965 0.3502,-0.175101 0.76606,-0.175101 0.86456,0 1.46647,0.656628 0.61286,0.656628 0.61286,1.586851 0,0.995886 -0.59097,1.619683 -0.59096,0.612853 -1.64157,0.612853 z m -1.23665,-2.451412 q 0.12038,0.711347 0.42681,1.039661 0.30643,0.317371 0.84267,0.317371 0.51436,0 0.80984,-0.306427 0.29549,-0.306426 0.29549,-0.842672 0,-0.470584 -0.30643,-0.798898 -0.30643,-0.339258 -0.75512,-0.339258 -0.3502,0 -0.72229,0.262652 -0.37209,0.262651 -0.59097,0.667571 z"
         style="font-weight:bold;font-family:FreeMono;-inkscape-font-specification:'FreeMono Bold';fill:#333333"
         id="path910" />
      <path
         d="m 130.69982,23.271067 q -0.72229,0 -0.72229,-0.54719 0,-0.54719 0.72229,-0.54719 h 0.41586 v -0.415865 h -2.97671 v -0.908335 l 2.63746,-4.388464 h 1.43363 v 4.202419 q 0.66758,0 0.66758,0.54719 0,0.525303 -0.66758,0.54719 v 0.415865 q 0.66758,0 0.66758,0.54719 0,0.54719 -0.73324,0.54719 z m 0.41586,-2.604625 v -2.648399 l -1.64157,2.648399 z"
         style="font-weight:bold;font-family:FreeMono;-inkscape-font-specification:'FreeMono Bold';fill:#333333"
         id="path912" />
    </g>
  </g>
  <path
     style="fill:#ececec;stroke:#272727;stroke-width:1px;stroke-linecap:butt;stroke-linejoin:miter;stroke-opacity:1"
     d="M 14.819,214.29064 H 558.65761"
     id="path2865" />
  <path
     style="fill:#ececec;stroke:#272727;stroke-width:1px;stroke-linecap:butt;stroke-linejoin:miter;stroke-opacity:1"
     d="M 14.819,248.15922 H 558.65761"
     id="path2865-3" />
  <path
     style="fill:#ececec;stroke:#272727;stroke-width:1px;stroke-linecap:butt;stroke-linejoin:miter;stroke-opacity:1"
     d="M 14.819,282.55856 H 558.65761"
     id="path2865-3-9" />
  <path
     style="fill:#ececec;stroke:#272727;stroke-width:1px;stroke-linecap:butt;stroke-linejoin:miter;stroke-opacity:1"
     d="M 14.819434,316.27928 H 558.65804"
     id="path2865-3-9-4" />
  <path
     style="fill:#ececec;stroke:#272727;stroke-width:1px;stroke-linecap:butt;stroke-linejoin:miter;stroke-opacity:1"
     d="M 14.819436,350.27928 H 558.65804"
     id="path2865-3-9-4-8" />
  <g
     id="uuid-9b2158ee-1b2f-4aa1-b860-e61fe22e1b94"
     data-name="FND GRAPH">
    <rect
       x="9.8654299"
       y="319.27237"
       width="28.631599"
       height="28.633011"
       rx="2.3429599"
       ry="2.3429599"
       fill="#ededed"
       id="rect18" />
    <rect
       x="43.968811"
       y="319.27237"
       width="28.631599"
       height="28.633011"
       rx="2.3429599"
       ry="2.3429599"
       fill="#ededed"
       id="rect20" />
    <rect
       x="9.8654299"
       y="285.27655"
       width="28.631599"
       height="28.633011"
       rx="2.3429599"
       ry="2.3429599"
       fill="#ededed"
       id="rect26" />
    <rect
       x="43.968811"
       y="285.27655"
       width="28.631599"
       height="28.633011"
       rx="2.3429599"
       ry="2.3429599"
       fill="#ededed"
       id="rect28" />
    <rect
       x="9.8654299"
       y="251.28075"
       width="28.631599"
       height="28.633011"
       rx="2.3429599"
       ry="2.3429599"
       fill="#ededed"
       id="rect34" />
    <rect
       x="43.968811"
       y="251.28075"
       width="28.631599"
       height="28.633011"
       rx="2.3429599"
       ry="2.3429599"
       fill="#ededed"
       id="rect36" />
    <rect
       x="9.8654299"
       y="217.28494"
       width="28.631599"
       height="28.633011"
       rx="2.3429599"
       ry="2.3429599"
       fill="#ededed"
       id="rect42" />
    <rect
       x="43.968811"
       y="217.28494"
       width="28.631599"
       height="28.633011"
       rx="2.3429599"
       ry="2.3429599"
       fill="#ededed"
       id="rect44" />
    <g
       id="g48837">
      <g
         id="g47787">
        <path
           d="m 59.332682,23.593031 -2.87167,-1.65796 c -0.24791,-0.14313 -0.55779,0.03578 -0.55779,0.32204 v 3.31592 c 0,0.28626 0.30989,0.46517 0.55779,0.32204 l 2.87167,-1.65796 c 0.24791,-0.14313 0.24791,-0.50096 0,-0.64409 z"
           fill="#ededed"
           id="path50"
           style="fill:#333333" />
        <g
           aria-label="CV   MIDI CC"
           id="text26412"
           style="font-size:14.6667px;line-height:1.25;fill:#333333">
          <path
             d="m 41.454026,25.458114 q -0.157553,1.668624 -1.231774,2.606777 -1.074221,0.930992 -2.857428,0.930992 -1.246097,0 -2.198573,-0.587241 -0.945315,-0.594402 -1.460941,-1.682947 -0.515626,-1.088544 -0.537111,-2.528 v -0.973961 q 0,-1.475263 0.522788,-2.599615 0.522788,-1.124352 1.496748,-1.733077 0.981122,-0.608725 2.263026,-0.608725 1.725916,0 2.778652,0.938153 1.052737,0.938153 1.224613,2.649746 h -1.804692 q -0.128907,-1.124352 -0.658856,-1.618494 -0.522787,-0.501303 -1.539717,-0.501303 -1.181643,0 -1.819014,0.866538 -0.63021,0.859377 -0.644533,2.528001 v 0.92383 q 0,1.690108 0.601564,2.578131 0.608725,0.888023 1.776046,0.888023 1.067059,0 1.60417,-0.479819 0.53711,-0.479818 0.68034,-1.597009 z"
             style="font-weight:500;font-family:Roboto;-inkscape-font-specification:'Roboto Medium'"
             id="path47742" />
          <path
             d="m 46.746356,26.582466 2.649745,-8.15692 h 1.99089 l -3.752612,10.427108 h -1.754562 l -3.73829,-10.427108 h 1.983729 z"
             style="font-weight:500;font-family:Roboto;-inkscape-font-specification:'Roboto Medium'"
             id="path47744" />
          <path
             d="m 65.867494,18.425546 3.007819,7.992206 3.000658,-7.992206 h 2.341802 v 10.427108 h -1.804692 v -3.437508 l 0.179037,-4.597667 -3.079434,8.035175 h -1.296227 l -3.072272,-8.028014 0.179036,4.590506 v 3.437508 H 63.51853 V 18.425546 Z"
             style="font-weight:500;font-family:Roboto;-inkscape-font-specification:'Roboto Medium'"
             id="path47746" />
          <path
             d="M 78.271168,28.852654 H 76.466477 V 18.425546 h 1.804691 z"
             style="font-weight:500;font-family:Roboto;-inkscape-font-specification:'Roboto Medium'"
             id="path47748" />
          <path
             d="M 80.498386,28.852654 V 18.425546 h 3.079434 q 1.382165,0 2.449225,0.615887 1.074221,0.615887 1.661462,1.7474 0.587241,1.131513 0.587241,2.592454 v 0.522787 q 0,1.482426 -0.594403,2.606777 -0.58724,1.124352 -1.682946,1.733077 -1.088544,0.608726 -2.499355,0.608726 z m 1.811853,-8.966167 v 7.519549 h 1.181644 q 1.425133,0 2.18425,-0.888023 0.766277,-0.895185 0.7806,-2.563808 v -0.58008 q 0,-1.697269 -0.737632,-2.592454 -0.737632,-0.895184 -2.141281,-0.895184 z"
             style="font-weight:500;font-family:Roboto;-inkscape-font-specification:'Roboto Medium'"
             id="path47750" />
          <path
             d="M 91.992554,28.852654 H 90.187863 V 18.425546 h 1.804691 z"
             style="font-weight:500;font-family:Roboto;-inkscape-font-specification:'Roboto Medium'"
             id="path47752" />
          <path
             d="m 105.82852,25.458114 q -0.15755,1.668624 -1.23177,2.606777 -1.07422,0.930992 -2.85743,0.930992 -1.2461,0 -2.198573,-0.587241 -0.945314,-0.594402 -1.460941,-1.682947 -0.515626,-1.088544 -0.53711,-2.528 v -0.973961 q 0,-1.475263 0.522787,-2.599615 0.522788,-1.124352 1.496749,-1.733077 0.981118,-0.608725 2.263028,-0.608725 1.72591,0 2.77865,0.938153 1.05274,0.938153 1.22461,2.649746 h -1.80469 q -0.12891,-1.124352 -0.65886,-1.618494 -0.52278,-0.501303 -1.53971,-0.501303 -1.18165,0 -1.81902,0.866538 -0.630207,0.859377 -0.64453,2.528001 v 0.92383 q 0,1.690108 0.601564,2.578131 0.608726,0.888023 1.776046,0.888023 1.06706,0 1.60417,-0.479819 0.53711,-0.479818 0.68034,-1.597009 z"
             style="font-weight:500;font-family:Roboto;-inkscape-font-specification:'Roboto Medium'"
             id="path47754" />
          <path
             d="m 115.40341,25.458114 q -0.15755,1.668624 -1.23177,2.606777 -1.07422,0.930992 -2.85743,0.930992 -1.2461,0 -2.19857,-0.587241 -0.94532,-0.594402 -1.46094,-1.682947 -0.51563,-1.088544 -0.53711,-2.528 v -0.973961 q 0,-1.475263 0.52278,-2.599615 0.52279,-1.124352 1.49675,-1.733077 0.98112,-0.608725 2.26303,-0.608725 1.72591,0 2.77865,0.938153 1.05274,0.938153 1.22461,2.649746 h -1.80469 q -0.12891,-1.124352 -0.65886,-1.618494 -0.52278,-0.501303 -1.53971,-0.501303 -1.18165,0 -1.81902,0.866538 -0.63021,0.859377 -0.64453,2.528001 v 0.92383 q 0,1.690108 0.60156,2.578131 0.60873,0.888023 1.77605,0.888023 1.06706,0 1.60417,-0.479819 0.53711,-0.479818 0.68034,-1.597009 z"
             style="font-weight:500;font-family:Roboto;-inkscape-font-specification:'Roboto Medium'"
             id="path47756" />
        </g>
      </g>
    </g>
  </g>
  <path
     style="fill:none;stroke:#000000;stroke-width:0.950005px;stroke-linecap:butt;stroke-linejoin:miter;stroke-opacity:1"
     d="M 146.86486,213.85718 V 350.72974"
     id="path48610" />
  <path
     style="fill:none;stroke:#000000;stroke-width:0.950074px;stroke-linecap:butt;stroke-linejoin:miter;stroke-opacity:1"
     d="M 287.19369,213.87455 V 350.76698"
     id="path48610-2" />
  <path
     style="fill:none;stroke:#000000;stroke-width:0.94956px;stroke-linecap:butt;stroke-linejoin:miter;stroke-opacity:1"
     d="M 427.38739,213.98939 V 350.73357"
     id="path48610-2-9" />
</svg>
